<?xml version="1.0" encoding="UTF-8" standalone="no"?>
<svg
   id="svg"
   width="400"
   height="52.142857142857146"
   viewBox="0, 0, 400,52.142857142857146"
   version="1.1"
   sodipodi:docname="image2vector.svg"
   inkscape:version="1.1 (c68e22c387, 2021-05-23)"
   xmlns:inkscape="http://www.inkscape.org/namespaces/inkscape"
   xmlns:sodipodi="http://sodipodi.sourceforge.net/DTD/sodipodi-0.dtd"
   xmlns="http://www.w3.org/2000/svg"
   xmlns:svg="http://www.w3.org/2000/svg">
  <defs
     id="defs8">
    <inkscape:path-effect
       effect="fill_between_many"
       method="originald"
       linkedpaths="#path0,0,1"
       id="path-effect1468"
       join="true"
       close="true"
       autoreverse="true" />
  </defs>
  <sodipodi:namedview
     id="namedview6"
     pagecolor="#505050"
     bordercolor="#eeeeee"
     borderopacity="1"
     inkscape:pageshadow="0"
     inkscape:pageopacity="0"
     inkscape:pagecheckerboard="0"
     showgrid="false"
     inkscape:zoom="5.5600541"
     inkscape:cx="309.70922"
     inkscape:cy="18.614927"
     inkscape:window-width="1360"
     inkscape:window-height="745"
     inkscape:window-x="-8"
     inkscape:window-y="-8"
     inkscape:window-maximized="1"
     inkscape:current-layer="layer1" />
  <g
     inkscape:groupmode="layer"
     id="layer1"
     inkscape:label="fill">
    <path
       style="fill:#ffffff;stroke:#ffffff;stroke-width:0.0551316"
       d="m 59.570259,14.903952 c -0.755335,-0.01772 -1.30363,0.649238 -1.454743,1.335757 -0.323125,0.84539 -0.637271,1.693673 -0.909157,2.557063 -0.246108,0.502417 -0.406294,1.034665 -0.544078,1.574363 -0.349642,0.849833 -0.63321,1.723585 -0.941878,2.588104 -0.295616,0.560008 -0.446742,1.173213 -0.62905,1.774402 -0.376149,0.856868 -0.530497,1.789953 -0.941006,2.633612 -0.245951,0.574852 -0.320187,1.216814 -0.686562,1.736538 -0.288731,0.703127 -0.406784,1.467977 -0.75666,2.149595 -0.5574,1.4489 -0.936743,2.964207 -1.666116,4.350768 -0.294799,0.637637 -0.588024,1.517051 -0.0014,2.083373 0.721529,0.599056 1.72574,0.568613 2.611622,0.643594 1.16143,0.01906 2.354191,0.168064 3.495067,-0.115106 0.757956,-0.190798 1.075111,-0.983058 1.199501,-1.678291 0.109492,-0.351565 0.09171,-0.774326 0.30962,-1.08109 0.422818,-0.280517 0.979468,-0.172236 1.460491,-0.22626 1.535022,-0.008 3.053937,-0.104638 4.576852,0.09015 0.203143,0.03687 0.47041,0.06569 0.48994,0.328743 0.314708,0.858518 0.530577,1.907774 1.410809,2.392842 0.874437,0.41062 1.879762,0.278965 2.81655,0.33672 1.119287,-0.019 2.290808,0.101176 3.359807,-0.298386 0.534561,-0.218578 0.971702,-0.761395 0.840219,-1.3644 -0.085,-1.008882 -0.808264,-1.81969 -0.994523,-2.806545 -0.142652,-0.628507 -0.536717,-1.159849 -0.686778,-1.788767 -0.247891,-0.78468 -0.668784,-1.499694 -0.883954,-2.295132 -0.38623,-0.847681 -0.581947,-1.766428 -1.00301,-2.599625 -0.284927,-0.8577 -0.690339,-1.669832 -0.979771,-2.525287 -0.240368,-0.80471 -0.613662,-1.562846 -0.908595,-2.348478 -0.247462,-0.478923 -0.449474,-0.973622 -0.600203,-1.490815 -0.288728,-0.701101 -0.595763,-1.395556 -0.780884,-2.132786 -0.455857,-1.132065 -1.012493,-2.225999 -1.551141,-3.317488 -0.355531,-0.479433 -1.043498,-0.309693 -1.56274,-0.381427 -1.362317,-0.05168 -2.724994,-0.108048 -4.088229,-0.125745 z m 2.362369,9.944366 c 0.476444,0.705042 0.511957,1.59524 0.87123,2.355909 0.16216,0.366538 0.306693,0.808403 0.170564,1.197928 -0.380395,0.417787 -1.010066,0.250979 -1.510413,0.283303 -0.240506,-0.0047 -0.722491,-0.06107 -0.614524,-0.418333 0.152967,-0.528778 0.345568,-1.048293 0.47527,-1.585655 0.215739,-0.60431 0.507875,-1.205592 0.607873,-1.833152 z"
       id="path2561" />
    <path
       style="fill:#ffffff;stroke:#ffffff;stroke-width:0.0551316"
       d="m 89.947892,14.556687 c -0.823016,0.06478 -1.604747,0.391001 -2.435698,0.418776 -0.812039,0.119072 -1.682398,0.01931 -2.445497,0.361251 -0.708375,0.406767 -0.672841,1.322619 -0.696557,2.031828 -0.04484,1.708423 -0.02989,3.408266 -0.09381,5.114285 -1.095228,-0.556481 -2.286925,-0.989893 -3.533485,-0.947036 -2.273519,-0.04767 -4.583706,0.94864 -5.971983,2.776717 -0.513798,0.616611 -0.916102,1.325795 -1.118212,2.104601 -0.494962,1.026102 -0.782788,2.159356 -0.711038,3.304221 0.119464,2.201786 0.736859,4.441831 2.06399,6.229658 1.13425,1.484957 3.015668,2.146845 4.799137,2.435401 1.166968,0.16101 2.407231,0.183024 3.521755,-0.245749 0.563465,-0.209333 1.007104,-0.774699 1.638335,-0.762906 0.225512,0.750215 1.126334,0.865131 1.789691,0.936515 1.27867,0.107685 2.56857,0.04762 3.845866,-0.0065 0.530529,-0.05503 0.575395,-0.661916 0.53095,-1.081161 0.0144,-5.450758 -0.042,-10.915571 0.04042,-16.357327 0.01022,-1.678645 0.23094,-3.363356 0.06182,-5.038804 -0.06215,-0.681796 -0.536372,-1.328203 -1.285687,-1.273735 z m -7.705506,12.883249 c 0.908217,0.01562 1.466326,0.85011 1.909901,1.53464 0.352788,0.53999 0.453539,1.260917 0.08873,1.821821 -0.535851,0.928982 -1.572492,1.744169 -2.699512,1.562421 -1.067007,-0.193547 -1.628933,-1.323629 -1.626813,-2.326512 -0.05721,-1.281795 1.026409,-2.552804 2.327696,-2.59237 z"
       id="path2600" />
    <path
       style="fill:#ffffff;stroke:#ffffff;stroke-width:0.0551316"
       d="m 104.51578,22.201893 c -0.85406,0.02051 -1.75574,0.09263 -2.51517,0.514921 -0.48284,0.343693 -0.17741,0.96328 -0.1866,1.439237 0.0818,1.384061 0.22534,2.803484 0.0334,4.207447 -0.21542,0.930727 -0.58819,1.852331 -1.18286,2.605723 -0.17177,0.245369 -0.54122,0.417499 -0.77604,0.147951 -0.689395,-0.716188 -0.869221,-1.755469 -1.07777,-2.692043 -0.296221,-1.708578 -0.12471,-3.451448 -0.28103,-5.168951 -0.0419,-0.547665 -0.554351,-0.948672 -1.093804,-0.906011 -1.576722,-0.06005 -3.17194,-0.05587 -4.751764,0.03446 -0.674963,0.121979 -0.825515,0.909474 -0.857555,1.484785 -0.08206,1.610555 -0.05126,3.227882 0.03345,4.837698 0.157735,1.751585 1.166024,3.269199 2.09544,4.708172 0.997051,1.44709 1.925628,2.96053 3.129829,4.247912 0.676387,0.543944 1.596902,0.589718 2.421689,0.718179 1.001955,0.06047 2.036205,0.09743 3.014805,-0.159756 0.8656,-0.321591 1.40465,-1.134412 2.00711,-1.788692 1.36023,-1.606788 2.49166,-3.395139 3.50982,-5.233052 0.57934,-1.331669 0.46934,-2.825166 0.50415,-4.243628 -0.0313,-1.228563 0.0103,-2.480713 -0.26381,-3.68542 -0.26402,-0.704415 -1.11875,-0.805289 -1.76367,-0.923993 -0.66175,-0.09586 -1.33075,-0.148752 -1.9996,-0.144936 z"
       id="path2639" />
    <path
       style="fill:#ffffff;stroke:#ffffff;stroke-width:0.0551316"
       d="m 116.81885,21.294375 c -1.489,-0.02115 -2.9724,0.391527 -4.22607,1.197713 -1.09711,0.698687 -2.18304,1.520335 -2.86577,2.648256 -0.28116,0.652603 -0.5414,1.317135 -0.78875,1.983769 -0.30726,1.150071 -0.29403,2.362299 -0.26161,3.544131 0.0356,1.217909 0.21323,2.455702 0.79295,3.544369 0.1465,0.408269 0.29168,0.824755 0.61426,1.135696 0.88291,0.948966 1.86756,1.837689 3.01005,2.46251 1.59355,0.72052 3.34948,1.237068 5.11454,1.02758 1.472,-0.168573 2.96586,-0.467975 4.29187,-1.152595 0.71805,-0.406037 1.53165,-0.981214 1.56748,-1.890197 0.0293,-1.045822 -0.50041,-2.014376 -1.03598,-2.878151 -0.42567,-0.74402 -1.39964,-1.162224 -2.17673,-0.687422 -0.62851,0.292041 -1.16944,0.808352 -1.89558,0.849371 -1.09075,0.09969 -2.28662,0.141836 -3.24803,-0.467972 -0.30365,-0.164333 0.15701,-0.134958 0.28331,-0.178962 2.29067,-0.359532 4.61697,-0.415804 6.909,-0.757091 0.68165,-0.120181 1.3716,-0.462165 1.77565,-1.034645 0.176,-0.445491 -0.009,-0.937689 0.0246,-1.403429 -0.0659,-1.468766 -0.2336,-3.018297 -1.03138,-4.289815 -0.89929,-1.200448 -2.04663,-2.246769 -3.3882,-2.931056 -1.00413,-0.495806 -2.11837,-0.791582 -3.2444,-0.723675 -0.0737,5.38e-4 -0.14744,0.0011 -0.22117,0.0016 z m -0.22871,5.47106 c 0.45908,-0.0055 0.86644,0.243884 1.105,0.62863 0.062,0.131105 0.29099,0.34581 0.18823,0.460435 -0.85929,0.304808 -1.79798,0.272537 -2.69822,0.267367 -0.16745,0.0097 -0.36038,-0.03249 -0.22441,-0.233449 0.26477,-0.660151 0.90782,-1.13431 1.6294,-1.122983 z"
       id="path2678" />
    <path
       style="fill:#ffffff;stroke:#ffffff;stroke-width:0.0551316"
       d="m 136.72341,21.654238 c -1.30134,0.05874 -2.60646,0.40202 -3.74884,1.03221 -0.35916,0.222281 -0.70197,0.47055 -1.07054,0.677947 -0.3545,-0.635426 -0.71054,-1.521966 -1.55779,-1.564683 -0.65678,0.04861 -1.28377,0.305827 -1.94434,0.358547 -1.02669,0.173978 -2.13113,0.141696 -3.09805,0.595812 -0.62267,0.292532 -0.71145,1.064218 -0.53653,1.655537 0.39946,1.185717 0.34484,2.43826 0.3982,3.661742 0.10318,3.182944 0.0917,6.380145 0.21061,9.563519 0.0834,0.592906 0.77946,0.570224 1.23774,0.675042 1.16805,0.127092 2.35118,0.07148 3.52315,0.02337 0.59995,-0.05257 1.41684,-0.07832 1.65534,-0.756552 0.25887,-0.994843 0.18187,-2.042505 0.24401,-3.061421 0.0691,-1.797308 0.0197,-3.604281 0.22084,-5.383409 0.0383,-0.420194 0.2384,-0.8341 0.64576,-1.006152 0.46992,-0.220697 0.99794,-0.579801 1.52871,-0.437284 0.44195,0.561938 0.41385,1.334938 0.50976,2.010258 0.21551,2.62965 0.11453,5.271063 0.36384,7.899651 0.0454,0.552032 0.65633,0.682953 1.11039,0.689038 1.48735,0.06801 2.98853,0.06626 4.46631,-0.130291 0.55195,-0.03168 0.83571,-0.582504 0.83462,-1.080607 0.12498,-2.359487 0.0538,-4.725081 0.0732,-7.087058 -0.0409,-1.699359 0.0807,-3.420963 -0.23502,-5.100644 -0.17102,-1.047404 -0.86954,-1.993829 -1.86416,-2.392286 -0.94654,-0.380107 -1.92277,-0.870109 -2.96718,-0.842282 z"
       id="path2717" />
    <path
       style="fill:#ffffff;stroke:#ffffff;stroke-width:0.0551316"
       d="m 144.88376,16.988939 c -0.76176,-0.02434 -1.13524,0.785054 -1.20407,1.432454 -0.16235,1.363729 -0.003,2.741728 -0.15592,4.09503 -0.48023,0.456459 -1.14214,0.77011 -1.38658,1.432023 -0.27744,0.655423 -0.13668,1.392024 -0.13924,2.084012 0.0514,0.815396 0.20361,1.835186 1.03944,2.214532 0.24355,0.182129 0.57289,0.346653 0.72179,0.591219 -0.049,2.283942 -0.35588,4.604863 0.0613,6.874593 0.15621,0.893986 0.65409,1.7527 1.48446,2.172423 1.50276,0.802298 3.28044,0.736651 4.92497,0.554535 1.23951,-0.197022 2.57085,-0.457024 3.53741,-1.316471 0.68562,-0.633453 0.66102,-1.641235 0.75593,-2.499544 0.006,-0.625945 0.13202,-1.318756 -0.17594,-1.891648 -0.34542,-0.444577 -0.98937,-0.280537 -1.47751,-0.348364 -0.75272,-0.04556 -1.52419,0.007 -2.26523,-0.130225 -0.26823,-0.240374 -0.22186,-0.679308 -0.3237,-1.000323 -0.11671,-0.776455 -0.22182,-1.577795 -0.12338,-2.358829 0.16,-0.49491 0.7864,-0.393816 1.19341,-0.456998 0.76482,-0.08861 1.70422,0.11384 2.29205,-0.510175 0.5097,-0.664189 0.38355,-1.561919 0.46068,-2.3461 -0.001,-0.861026 0.17884,-1.764276 -0.10738,-2.59701 -0.22567,-0.619878 -0.94379,-0.735511 -1.52226,-0.71908 -0.69442,-0.03552 -1.4047,0.06523 -2.08994,-0.0365 -0.18926,-0.181385 -0.0372,-0.513201 -0.0817,-0.742753 -0.0176,-0.948739 0.14212,-1.920292 -0.0749,-2.854047 -0.21122,-0.81812 -1.09584,-1.131486 -1.84766,-1.226787 -1.13486,-0.144528 -2.2477,-0.295939 -3.3878,-0.415748 -0.0361,-0.0012 -0.0722,-0.0011 -0.10821,-2.16e-4 z"
       id="path2756" />
    <path
       style="fill:#ffffff;stroke:#ffffff;stroke-width:0.0551316"
       d="m 168.29338,22.238611 c -0.88892,0.04574 -1.84267,-0.03231 -2.66301,0.369232 -0.55487,0.324178 -0.40704,1.052675 -0.47119,1.589455 -0.12865,2.244779 0.0462,4.503345 -0.21354,6.740158 -0.0611,0.532588 -0.25296,1.113369 -0.78966,1.339815 -0.48307,0.264607 -1.10401,0.622786 -1.6553,0.355805 -0.52778,-0.552519 -0.60371,-1.373997 -0.6984,-2.098224 -0.187,-2.266842 0.0207,-4.523972 0.075,-6.808654 0.0263,-0.505697 -0.0742,-1.187336 -0.67031,-1.303563 -1.22089,-0.189701 -2.4671,-0.08765 -3.69821,-0.09789 -0.56363,0.05998 -1.21639,-0.09699 -1.70782,0.25004 -0.62146,0.600801 -0.69794,1.532525 -0.85083,2.337605 -0.31348,2.439804 -0.27772,4.916345 -0.0761,7.364054 0.15832,1.3352 0.28164,2.733969 0.92335,3.940942 0.79784,1.295019 2.32907,1.927566 3.77576,2.155948 1.42313,0.161126 2.9316,0.0045 4.17612,-0.754076 0.42992,-0.216002 0.86463,-0.540398 1.31896,-0.635306 0.25519,0.475444 0.47764,1.043427 1.03909,1.229365 0.57838,0.291806 1.25671,0.09273 1.87965,0.14965 1.09045,-0.02735 2.20291,0.03229 3.27398,-0.200684 0.61208,-0.241215 0.49798,-1.009391 0.55618,-1.537051 0.1588,-3.707276 0.1136,-7.419768 0.12518,-11.129546 -0.0267,-0.821196 0.0405,-1.653529 -0.0685,-2.46768 -0.2163,-0.658738 -1.0153,-0.67271 -1.5884,-0.740842 -0.66246,-0.05331 -1.3279,-0.05229 -1.99203,-0.04855 z"
       id="path2795" />
    <path
       style="fill:#ffffff;stroke:#ffffff;stroke-width:0.0551316"
       d="m 177.92591,21.819094 c -0.58636,0.03928 -1.13784,0.285639 -1.72954,0.31034 -0.85924,0.154257 -1.80293,0.08418 -2.62134,0.45192 -0.69933,0.376289 -0.83379,1.28769 -0.60236,1.987215 0.29604,1.98658 0.29423,3.992476 0.37328,5.99354 0.074,2.101052 0.051,4.212222 0.25083,6.307596 0.0808,0.736962 0.63874,1.445082 1.41243,1.49846 1.29817,0.03252 2.60226,0.02646 3.8983,-0.06278 0.71395,-0.02864 1.49072,-0.584801 1.41867,-1.365477 -0.0126,-1.553137 -0.3181,-3.075479 -0.27943,-4.625241 0.0228,-0.928285 -0.0463,-2.009498 0.64887,-2.729877 0.78784,-0.609833 1.8518,-0.442392 2.77567,-0.627733 0.46506,-0.03844 1.02495,-0.212569 1.11714,-0.742805 0.22056,-1.181003 0.11981,-2.395386 0.14731,-3.59066 -0.0465,-0.658735 0.0962,-1.393952 -0.26252,-1.98571 -0.49523,-0.559672 -1.34485,-0.484645 -2.01931,-0.417687 -0.94905,0.09538 -1.83065,0.542425 -2.66979,0.920763 -0.45828,-0.615214 -1.00034,-1.348227 -1.85821,-1.321867 z"
       id="path2834" />
    <path
       style="fill:#ffffff;stroke:#ffffff;stroke-width:0.0551316"
       d="m 192.58887,21.378149 c -1.18175,-0.02573 -2.36622,0.193316 -3.43599,0.704315 -1.49524,0.679481 -2.87883,1.766333 -3.57325,3.290398 -0.40965,0.79898 -0.87752,1.60387 -0.93265,2.522185 -0.1674,1.518718 -0.2776,3.069382 -0.0427,4.586094 0.19952,0.588635 0.49145,1.144148 0.67224,1.741815 0.83189,2.057421 2.83937,3.367214 4.87861,4.036561 2.74509,0.890593 5.87387,0.695501 8.41115,-0.718531 0.70319,-0.392602 1.50933,-1.013966 1.40368,-1.920788 -0.12168,-1.028399 -0.62994,-1.970059 -1.15662,-2.84452 -0.34235,-0.593062 -1.10914,-0.890162 -1.7464,-0.598837 -0.82071,0.325769 -1.59593,0.779277 -2.47791,0.932499 -0.98457,0.262742 -2.04615,-0.0081 -2.93931,-0.449021 -0.36625,-0.151346 -0.14231,-0.207159 0.14579,-0.211373 2.295,-0.296079 4.59858,-0.464078 6.8949,-0.731033 0.69679,-0.06647 1.41062,-0.414525 1.67689,-1.101448 0.24502,-0.703322 0.0999,-1.471094 0.13546,-2.201916 0.023,-0.990496 -0.19558,-1.979798 -0.68387,-2.845905 -0.58871,-1.222623 -1.63851,-2.140042 -2.6488,-3.011518 -0.54392,-0.45901 -1.12706,-0.941216 -1.86747,-1.004645 -0.89513,-0.150545 -1.80771,-0.177454 -2.71373,-0.174332 z m -0.21977,5.391808 c 0.56937,-0.01438 1.12411,0.326313 1.26738,0.897397 0.1868,0.284765 -0.07,0.357668 -0.31399,0.371384 -0.77963,0.07302 -1.59128,0.173713 -2.35946,-0.01432 -0.17337,-0.114851 0.12631,-0.364648 0.17174,-0.52698 0.24761,-0.444875 0.706,-0.774406 1.23433,-0.72748 z"
       id="path2873" />
    <path
       style="fill:#ffffff;stroke:#ffffff;stroke-width:0.0551316"
       d="m 218.90302,14.562933 c -0.64477,-0.02367 -1.21499,0.325756 -1.84516,0.408886 -0.95342,0.182085 -1.87957,0.480134 -2.75133,0.907704 -0.8089,0.257716 -1.394,0.928839 -2.03167,1.457115 -1.05152,0.940571 -2.00124,2.014661 -2.63312,3.286034 -0.81143,1.39666 -1.2204,2.978926 -1.53633,4.549795 -0.25636,2.032562 0.0548,4.108345 0.78207,6.016561 0.78086,2.109796 2.07427,4.068937 3.90884,5.404707 0.54571,0.44604 1.14806,0.817184 1.81595,1.047884 1.46227,0.676744 3.06662,0.986178 4.65417,1.19818 1.58928,0.07316 3.13103,-0.420168 4.6944,-0.625091 0.88442,-0.115385 1.66374,-0.728866 2.58647,-0.583104 0.86297,0.11117 1.63905,0.655995 2.53568,0.564958 0.49818,0.05308 1.16088,-0.106072 1.24143,-0.689398 0.11467,-1.460123 0.0377,-2.930392 0.0624,-4.394378 -0.0234,-2.004488 0.0495,-4.013175 -0.0697,-6.014839 -0.0646,-0.641998 -0.33658,-1.422876 -1.05493,-1.561775 -1.27647,-0.120476 -2.54965,-0.02747 -3.82479,-0.114232 -0.78162,-0.0096 -1.6993,-0.268928 -2.36546,0.27252 -0.59507,0.581367 -0.38125,1.491954 -0.35126,2.231865 0.0732,1.072077 0.29496,2.106238 0.23669,3.187186 -0.0697,0.358055 -0.57011,0.28045 -0.8287,0.354264 -1.23633,0.08541 -2.48156,0.09687 -3.7188,0.0336 -1.08167,-0.233405 -1.94024,-1.105133 -2.41244,-2.07605 -0.52071,-1.162029 -0.54034,-2.459182 -0.37881,-3.693389 0.18552,-1.205013 0.77078,-2.358988 1.7307,-3.129922 0.41151,-0.380784 0.89674,-0.751883 1.48848,-0.723339 0.89437,-0.07707 1.7929,-0.07888 2.68992,-0.08004 0.95798,0.667197 1.83224,1.485557 2.89882,1.980216 0.6421,0.292168 1.34309,-0.06412 1.75875,-0.567226 0.84574,-0.94271 1.90267,-1.883933 2.06773,-3.214136 0.0836,-0.854674 -0.18701,-1.739186 -0.80641,-2.347078 -1.49074,-1.660286 -3.70847,-2.363529 -5.83616,-2.76788 -0.89257,-0.169022 -1.79668,-0.317488 -2.70741,-0.319598 z m -4.67531,1.357508 c 0.003,-9.68e-4 0.0125,-0.0016 0,0 z"
       id="path2912" />
    <path
       style="fill:#ffffff;stroke:#ffffff;stroke-width:0.0551316"
       d="m 238.08829,21.598568 c -1.50558,-2.64e-4 -2.94001,0.601521 -4.21445,1.358693 -1.36861,0.950602 -2.42484,2.368756 -2.84454,3.991114 -0.57863,1.968789 -0.77197,4.114897 -0.11924,6.091518 0.65369,2.201643 2.19525,4.181518 4.31306,5.132512 0.94924,0.446968 2.00978,0.62197 3.05286,0.510614 1.25569,-0.04793 2.3921,-0.659302 3.39253,-1.374199 0.34043,0.641547 1.03129,1.034631 1.75374,1.028873 1.18287,0.02974 2.37218,0.06568 3.55279,-0.01809 0.67942,-0.0907 1.16599,-0.700295 1.23086,-1.362307 0.11001,-1.607493 0.052,-3.224874 0.0736,-4.836232 -8.2e-4,-2.351171 0.0142,-4.669756 0.12906,-7.003439 -0.0168,-0.727368 0.14608,-1.623119 -0.47131,-2.163378 -0.76666,-0.682234 -1.86801,-0.645449 -2.82606,-0.772633 -0.64567,-0.02638 -1.31115,-0.140721 -1.94627,0.0013 -0.26982,0.189564 -0.4805,0.449275 -0.72662,0.667395 -1.00917,-0.75357 -2.25387,-1.107206 -3.49598,-1.213475 -0.28377,-0.02735 -0.56893,-0.041 -0.85403,-0.03829 z m 1.22366,6.0129 c 0.91906,-0.06263 1.70319,0.590023 2.20042,1.301839 0.56331,1.204633 0.01,2.853212 -1.27438,3.325772 -0.91586,0.401497 -2.00614,0.03382 -2.61595,-0.726187 -0.7121,-0.739449 -0.96534,-1.976748 -0.31894,-2.837556 0.4514,-0.636909 1.21387,-1.09494 2.00885,-1.063868 z"
       id="path3029" />
    <path
       style="fill:#ffffff;stroke:#ffffff;stroke-width:0.0551316"
       d="m 270.43139,21.543975 c -1.07811,-0.0067 -2.06487,0.491935 -3.03036,0.906988 -0.6369,0.328856 -1.18594,0.81349 -1.82909,1.124052 -0.44496,-0.267857 -0.77388,-0.730792 -1.21332,-1.044701 -0.40549,-0.306304 -0.92496,-0.394256 -1.37086,-0.633906 -0.9909,-0.425057 -2.11079,-0.326569 -3.14951,-0.174117 -1.25396,0.295102 -2.33045,1.044744 -3.48255,1.587726 -0.0989,-0.559403 -0.22857,-1.303446 -0.88932,-1.446344 -0.80975,-0.122123 -1.58872,0.258175 -2.38724,0.338179 -0.88787,0.174032 -1.84127,0.115679 -2.67571,0.499994 -0.70327,0.40099 -0.68421,1.292691 -0.67623,1.99723 0.0452,3.748599 0.10457,7.498124 0.24862,11.244383 0.0717,0.644351 -0.0132,1.366329 0.34975,1.934659 0.50018,0.484623 1.26612,0.463996 1.91658,0.533119 1.18253,0.04094 2.39897,0.07691 3.54813,-0.244647 0.51916,-0.181477 1.01497,-0.664314 0.8961,-1.258013 0.0322,-2.380443 -0.096,-4.75895 -0.0544,-7.132377 0.003,-0.646098 0.18708,-1.356962 0.78376,-1.703973 0.40561,-0.312086 1.01509,-0.665236 1.50579,-0.325837 0.34563,0.170554 0.47281,0.53257 0.46302,0.895458 0.15421,2.835278 0.0546,5.676029 0.21718,8.511483 -0.007,0.462313 0.29492,0.924689 0.78541,0.95802 1.08139,0.146695 2.18194,0.06284 3.27096,0.08183 0.6989,-0.04529 1.43192,0.06927 2.10531,-0.15226 0.56625,-0.229566 0.40722,-0.942328 0.4562,-1.433286 0.0607,-2.429887 -0.0285,-4.855312 0.114,-7.268134 -0.0116,-0.6221 0.53166,-1.0411 0.96965,-1.397565 0.30681,-0.260956 0.69476,-0.380237 1.09563,-0.324867 0.39133,-0.06029 0.45214,0.458144 0.52816,0.737708 0.21983,1.445334 0.1527,2.880891 0.20644,4.348929 0.0463,1.391222 0.01,2.789553 0.14826,4.175368 0.0604,0.718623 0.59096,1.425116 1.35331,1.461203 1.39477,0.0531 2.80822,0.115487 4.19194,-0.106279 0.46099,-0.06265 0.97514,-0.288768 1.05525,-0.803608 0.1762,-1.190033 0.0664,-2.402878 0.0978,-3.602076 -0.0213,-2.897955 0.0276,-5.804263 -0.23027,-8.693461 -0.13712,-1.311748 -1.19727,-2.297139 -2.2899,-2.905393 -0.92398,-0.499909 -1.98339,-0.70769 -3.02847,-0.685484 z m -6.63819,0.711327 c 0.0153,0.0022 -0.01,-0.0011 0,0 z"
       id="path3068" />
    <path
       style="fill:#ffffff;stroke:#ffffff;stroke-width:0.0551316"
       d="m 284.99529,21.346707 c -2.05523,-0.05184 -4.16949,0.648511 -5.61885,2.143728 -1.64505,1.61816 -2.55346,3.91724 -2.63119,6.208175 -0.007,1.205379 0.0484,2.434842 0.49773,3.569569 0.65486,1.896784 2.02847,3.524626 3.79855,4.473833 1.12546,0.62139 2.41578,0.845127 3.66464,1.080343 1.22133,0.08738 2.48164,0.137393 3.65916,-0.26005 1.27451,-0.333638 2.52849,-0.847876 3.51344,-1.746547 0.47702,-0.33531 0.76677,-0.959635 0.53797,-1.52635 -0.35084,-0.867274 -0.76608,-1.720948 -1.29312,-2.49589 -0.36727,-0.569153 -1.11183,-0.832999 -1.7473,-0.579097 -0.90365,0.34696 -1.77256,0.841718 -2.75956,0.911436 -0.94728,0.08225 -2.02082,0.04561 -2.80626,-0.554158 1.37526,-0.401303 2.83863,-0.435945 4.24632,-0.576878 1.25997,-0.132997 2.55737,-0.113346 3.77813,-0.485482 0.60047,-0.187632 0.94537,-0.781682 1.01617,-1.380122 0.2369,-0.93605 0.14293,-1.918789 -0.1752,-2.823449 -0.54067,-1.578705 -1.29779,-3.13231 -2.46074,-4.348345 -0.31872,-0.36631 -0.74316,-0.602518 -1.2054,-0.734102 -0.89996,-0.530145 -1.91688,-0.867521 -2.96882,-0.863455 -0.34838,-0.01346 -0.69709,-0.01387 -1.04567,-0.01316 z m -0.21644,5.445109 c 0.56698,-0.04913 1.13184,0.344835 1.27105,0.889536 -0.67398,0.399321 -1.50311,0.460752 -2.27106,0.439653 -0.20427,-0.03683 -0.53626,-0.03838 -0.62648,-0.258214 0.16551,-0.742361 0.91482,-1.111031 1.62649,-1.070975 z"
       id="path3107" />
    <path
       style="fill:#ffffff;stroke:#ffffff;stroke-width:0.0551316"
       d="m 309.14079,14.671688 c -1.34943,0.06364 -2.62151,0.616872 -3.82185,1.196852 -1.92845,0.977111 -3.68981,2.616411 -4.18742,4.790314 -0.36413,1.64802 0.0424,3.387822 0.91365,4.811957 0.91233,1.615816 2.504,2.836561 3.00952,4.676066 0.23809,0.710709 -0.25823,1.433287 -0.90288,1.714357 -1.02384,0.577572 -2.26786,0.626962 -3.25385,1.274703 -0.53912,0.364715 -0.53896,1.114318 -0.24824,1.636958 0.53502,1.253903 1.12813,2.513077 2.00223,3.568133 0.91191,0.882643 2.35827,0.867108 3.45177,0.355412 0.52256,-0.255985 1.07967,-0.425155 1.61894,-0.633437 0.35872,-0.264451 0.73485,-0.495433 1.15055,-0.661364 1.20594,-0.688704 2.13054,-1.78755 2.88591,-2.934219 0.6613,-1.00989 1.07559,-2.176635 1.13869,-3.385782 0.17075,-1.311969 -0.1857,-2.647832 -0.89449,-3.754981 -0.88586,-1.545196 -2.30738,-2.764039 -2.92811,-4.460708 -0.19988,-0.613262 -0.26987,-1.482408 0.38506,-1.855201 0.782,-0.505826 1.77184,-0.298424 2.60196,-0.647366 0.59675,-0.276537 0.57542,-1.050554 0.29609,-1.549452 -0.34026,-0.877252 -0.91362,-1.668149 -1.11876,-2.593172 -0.0634,-0.717834 -0.60921,-1.348105 -1.32844,-1.467126 -0.25272,-0.05643 -0.51123,-0.08636 -0.77033,-0.08194 z"
       id="path3146" />
    <path
       style="fill:#ffffff;stroke:#ffffff;stroke-width:0.0551316"
       d="m 315.91046,17.023612 c -0.68883,-0.03091 -1.23367,0.556132 -1.34115,1.203635 -0.26413,1.374451 0.0553,2.786913 -0.13373,4.166638 -0.12613,0.63039 -0.95077,0.608006 -1.29369,1.027522 -0.22049,0.501428 -0.13,1.08329 -0.17606,1.621364 0.0349,0.816091 -0.11442,1.692685 0.24027,2.45725 0.2284,0.500218 0.78434,0.668076 1.19577,0.960496 0.21984,0.730573 0.12299,1.495704 0.15608,2.245106 0.0223,1.589088 -0.0684,3.18458 0.0575,4.769639 0.28542,1.399212 1.48187,2.480522 2.84736,2.806329 2.02124,0.575479 4.22815,0.346268 6.16696,-0.42187 0.77452,-0.292412 1.58747,-0.827787 1.72073,-1.712327 0.16667,-0.999808 0.243,-2.029587 0.14203,-3.039669 -0.0627,-0.598995 -0.68853,-0.911834 -1.23863,-0.831927 -0.82042,0.03943 -1.65021,0.316866 -2.46789,0.133629 -0.44475,-0.233417 -0.38581,-0.84792 -0.46308,-1.270941 -0.0448,-0.87722 -0.1338,-1.770691 0.0136,-2.641681 0.96985,-0.169397 1.99102,0.03216 2.93802,-0.266937 0.73744,-0.31259 0.81495,-1.204659 0.85949,-1.899779 0.0579,-1.125891 0.12449,-2.261342 0.0994,-3.384487 -0.0873,-0.570901 -0.77033,-0.547708 -1.22154,-0.61331 -0.88754,-0.07392 -1.78654,0.0666 -2.65677,-0.01335 -0.17507,-0.870431 -0.0925,-1.7592 -0.14886,-2.642255 -0.0289,-0.666648 0.0454,-1.49195 -0.59261,-1.915149 -0.65148,-0.460339 -1.49853,-0.35347 -2.24706,-0.493287 -0.81827,-0.08269 -1.63572,-0.190745 -2.45614,-0.244637 z"
       id="path3185" />
    <path
       style="fill:#ffffff;stroke:#ffffff;stroke-width:0.0551316"
       d="m 328.9633,22.258963 c -0.65233,0.04608 -1.38617,-0.07269 -1.96137,0.298701 -0.60669,0.571066 -0.67024,1.473757 -0.85266,2.240982 -0.47674,2.694616 -0.4368,5.450524 -0.30382,8.173727 0.0547,1.16748 0.33888,2.341849 1.01412,3.312527 0.5423,0.922435 1.43569,1.65683 2.50322,1.856601 1.32717,0.244101 2.71037,0.277435 4.0391,0.02651 0.94967,-0.214788 1.71967,-0.874166 2.62246,-1.198379 0.0643,0.511558 0.36464,0.999198 0.87413,1.165625 1.01977,0.364826 2.12795,0.205263 3.1887,0.24789 0.81345,-0.05309 1.79426,0.153079 2.42332,-0.504597 0.53639,-0.547626 0.32826,-1.375738 0.38924,-2.062158 0.005,-3.96754 0.0334,-7.935758 -0.0202,-11.902941 0.0383,-0.58274 -0.23041,-1.200723 -0.7951,-1.432669 -0.59592,-0.359867 -1.32017,-0.141565 -1.97742,-0.201144 -0.96189,0.03441 -1.93872,-0.07477 -2.89128,0.08097 -0.71779,0.187367 -1.05188,0.944478 -1.08024,1.628752 -0.12571,2.42635 -0.0907,4.858823 -0.13148,7.287819 -0.3386,0.546758 -0.74323,1.117762 -1.40286,1.28794 -0.36177,0.119119 -0.8723,0.395982 -1.14805,-0.01894 -0.62394,-0.861943 -0.67561,-1.999656 -0.76871,-3.007582 -0.13164,-1.966656 0.0598,-3.946415 0.15379,-5.927294 0.0407,-0.584827 -0.38218,-1.171971 -0.98874,-1.209021 -0.95464,-0.132229 -1.92399,-0.138043 -2.88612,-0.14332 z"
       id="path3224" />
    <path
       style="fill:#ffffff;stroke:#ffffff;stroke-width:0.0551316"
       d="m 360.56287,14.597497 c -1.03096,0.09847 -2.02683,0.334888 -3.06002,0.436639 -0.80615,0.13572 -1.66352,0.134768 -2.41718,0.478094 -0.54579,0.329156 -0.37546,1.055441 -0.41107,1.586757 -0.0179,1.81576 0.063,3.660486 0.18096,5.450171 -0.77024,-0.420426 -1.57542,-0.81888 -2.46466,-0.896643 -1.33703,-0.117014 -2.73207,-0.156505 -4.01922,0.281042 -2.37211,0.908139 -3.96219,3.206704 -4.56096,5.608243 -0.71988,2.848019 -0.26952,6.096743 1.63399,8.402759 1.18609,1.485941 3.02115,2.39414 4.91502,2.487449 1.54733,0.139035 3.12569,-0.14923 4.50714,-0.865944 0.16482,-0.04207 0.4375,-0.299909 0.43621,0.01066 0.29708,0.597838 1.06359,0.663536 1.65449,0.734047 1.26142,0.06698 2.53151,0.0922 3.79202,0.0033 0.68158,-0.02316 1.14313,-0.688853 1.09035,-1.335003 -0.0327,-1.634014 -0.28428,-3.249803 -0.28688,-4.887424 -0.0777,-4.732634 0.0182,-9.442431 0.27433,-14.153168 0.002,-0.870774 0.18106,-1.781325 -0.10008,-2.625383 -0.18173,-0.477272 -0.65926,-0.755831 -1.16444,-0.715635 z m -8.27836,12.907585 c 0.58794,0.04058 1.32538,-0.03782 1.71371,0.507921 0.85453,0.946752 1.04007,2.482259 0.24993,3.526486 -0.57468,0.890668 -1.87517,1.115708 -2.73731,0.517074 -0.91343,-0.552128 -1.26311,-1.7169 -1.03404,-2.724816 0.12847,-0.834824 0.81233,-1.502059 1.56824,-1.810406 0.0784,-0.01753 0.15964,-0.01516 0.23947,-0.01626 z"
       id="path3263" />
    <path
       style="fill:#ffffff;stroke:#ffffff;stroke-width:0.0551316"
       d="m 365.20405,22.303865 c -0.59395,0.04776 -1.27085,-0.09928 -1.79404,0.248631 -0.4642,0.448516 -0.25097,1.162972 -0.31454,1.735664 -0.0159,3.816899 -0.0415,7.635114 0.0394,11.451245 0.0728,0.831048 0.0433,1.849307 0.77174,2.411356 0.74635,0.487601 1.67323,0.219661 2.50362,0.248211 0.79031,-0.05759 1.60453,0.0018 2.37682,-0.188664 0.67777,-0.25671 1.05885,-0.996845 0.99011,-1.701974 0.0878,-3.604072 -0.0335,-7.258943 0.1262,-10.82658 0.0218,-0.890354 0.18649,-1.80149 -0.003,-2.681637 -0.19591,-0.623954 -0.94636,-0.572172 -1.46972,-0.614031 -1.07432,-0.05997 -2.1508,-0.08208 -3.2267,-0.08222 z"
       id="path3302" />
    <path
       style="fill:#ffffff;stroke:#ffffff;stroke-width:0.0551316"
       d="m 366.26609,15.637461 c -1.07228,0.02384 -2.23141,0.436969 -2.78619,1.415224 -0.78515,1.277802 -0.7814,3.174397 0.39819,4.217354 1.2695,1.097304 3.17588,1.173497 4.68005,0.55487 1.34044,-0.615007 1.8324,-2.358871 1.37668,-3.690158 -0.5052,-1.52649 -2.08332,-2.533436 -3.66873,-2.49729 z"
       id="path3341" />
    <path
       style="fill:#ffffff;stroke:#ffffff;stroke-width:0.0551316"
       d="m 378.2444,21.567556 c -0.84033,-0.01437 -1.69401,0.08793 -2.44899,0.481423 -1.48996,0.641078 -2.83912,1.624117 -3.86024,2.887636 -0.35654,0.461964 -0.42697,1.062661 -0.69001,1.57541 -0.65544,1.6659 -0.65702,3.50424 -0.49801,5.261666 0.27932,2.47696 1.89309,4.717272 4.10122,5.85037 3.33945,1.785819 7.86717,1.254321 10.51557,-1.519158 1.35498,-1.402441 2.10919,-3.325851 2.14924,-5.268928 0.014,-1.063203 0.0747,-2.150067 -0.16355,-3.194034 -0.20668,-0.571595 -0.42237,-1.139648 -0.59127,-1.72437 -0.44372,-1.030531 -1.33692,-1.777872 -2.16535,-2.497034 -1.06612,-0.856685 -2.29604,-1.630733 -3.69868,-1.714993 -0.87907,-0.101366 -1.76521,-0.143269 -2.64993,-0.137988 z m 0.29095,5.98975 c 0.47408,0.06292 1.01198,0.02799 1.46282,0.226018 0.70176,0.55391 1.19398,1.399142 1.15496,2.311221 -0.003,0.999577 -0.57637,2.121063 -1.60097,2.383474 -0.85204,0.190003 -1.7254,-0.314704 -2.22561,-0.983109 -0.60326,-0.904187 -0.49603,-2.203114 0.22817,-3.011781 0.27753,-0.318893 0.55105,-0.708653 0.88055,-0.933329 l 0.055,0.0041 z"
       id="path3380" />
  </g>
</svg>
