<?xml version="1.0" encoding="UTF-8" standalone="no"?>
<svg
   viewBox="0 0 450.18799 55.998665"
   height="55.998665"
   width="450.18799"
   xml:space="preserve"
   id="svg2"
   version="1.1"
   sodipodi:docname="logo.svg"
   inkscape:version="1.1 (c68e22c387, 2021-05-23)"
   xmlns:inkscape="http://www.inkscape.org/namespaces/inkscape"
   xmlns:sodipodi="http://sodipodi.sourceforge.net/DTD/sodipodi-0.dtd"
   xmlns="http://www.w3.org/2000/svg"
   xmlns:svg="http://www.w3.org/2000/svg"
   xmlns:rdf="http://www.w3.org/1999/02/22-rdf-syntax-ns#"
   xmlns:cc="http://creativecommons.org/ns#"
   xmlns:dc="http://purl.org/dc/elements/1.1/"><sodipodi:namedview
     id="namedview11"
     pagecolor="#505050"
     bordercolor="#eeeeee"
     borderopacity="1"
     inkscape:pageshadow="0"
     inkscape:pageopacity="0"
     inkscape:pagecheckerboard="0"
     showgrid="false"
     inkscape:zoom="0.95710678"
     inkscape:cx="240.82997"
     inkscape:cy="-102.91433"
     inkscape:window-width="1360"
     inkscape:window-height="745"
     inkscape:window-x="-8"
     inkscape:window-y="-8"
     inkscape:window-maximized="1"
     inkscape:current-layer="g12" /><metadata
     id="metadata8"><rdf:RDF><cc:Work
         rdf:about=""><dc:format>image/svg+xml</dc:format><dc:type
           rdf:resource="http://purl.org/dc/dcmitype/StillImage" /></cc:Work></rdf:RDF></metadata><defs
     id="defs6"><clipPath
       id="clipPath18"
       clipPathUnits="userSpaceOnUse"><path
         id="path16"
         d="M 0,480 H 640 V 0 H 0 Z" /></clipPath></defs><g
     transform="matrix(1.3333333,0,0,-1.3333333,-201.88133,347.35066)"
     id="g10"
     style="fill:#ffffff"><g
       id="g12"
       style="fill:#ffffff"><g
         clip-path="url(#clipPath18)"
         id="g14"
         style="fill:#ffffff"><path
           id="path20"
           style="fill:#ffffff;fill-opacity:1;fill-rule:nonzero;stroke:none"
           d="m 486.22,232.602 c -0.826,-2.167 -1.894,-3.956 -3.205,-5.368 -1.311,-1.411 -2.824,-2.545 -4.537,-3.397 -1.715,-0.855 -3.812,-1.516 -6.288,-1.983 -1.097,-0.215 -2.82,-0.323 -5.171,-0.323 h -16.347 v 0.948 h 1.209 c 1.057,0 1.867,0.167 2.432,0.503 0.563,0.336 0.98,0.794 1.249,1.374 0.161,0.38 0.242,1.524 0.242,3.427 v 24.066 c 0,1.885 -0.099,3.92 -0.295,4.392 -0.197,0.472 -0.596,0.884 -1.196,1.238 -0.6,0.354 -1.411,0.53 -2.432,0.53 h -1.209 v 0.949 h 16.347 c 4.363,0 7.873,-0.594 10.529,-1.78 3.25,-1.456 5.714,-4.148 7.393,-7.097 1.679,-2.949 2.518,-6.284 2.518,-10.006 0,-2.571 -0.412,-5.306 -1.239,-7.473 m -37.266,13.64 h -1.034 c -0.79,3.313 -2.26,5.852 -4.41,7.616 -2.152,1.765 -4.59,2.648 -7.314,2.648 -2.276,0 -4.365,-0.655 -6.264,-1.966 -1.901,-1.312 -3.289,-3.028 -4.168,-5.148 -1.129,-2.713 -1.694,-5.73 -1.694,-9.053 0,-3.27 0.412,-6.247 1.237,-8.933 0.824,-2.685 2.115,-4.715 3.872,-6.09 1.757,-1.375 4.034,-2.06 6.831,-2.06 2.293,0 4.393,0.502 6.303,1.508 1.91,1.007 3.921,2.74 6.038,5.202 v -3.154 c -2.048,-2.141 -4.181,-3.693 -6.4,-4.658 -2.217,-0.961 -4.808,-1.443 -7.772,-1.443 -3.898,0 -7.36,0.782 -10.386,2.344 -3.026,1.563 -5.361,3.808 -7.004,6.737 -1.644,2.928 -2.465,6.044 -2.465,9.35 0,3.485 0.91,6.791 2.734,9.917 1.823,3.125 4.283,5.55 7.381,7.275 3.099,1.724 6.389,2.587 9.875,2.587 2.568,0 5.28,-0.555 8.136,-1.664 1.654,-0.644 2.703,-0.966 3.153,-0.966 0.574,0 1.073,0.209 1.494,0.63 0.423,0.421 0.696,1.087 0.823,2 h 1.034 z m 37.37,4.628 c -1.842,3.234 -4.574,6.169 -8.125,7.76 -2.853,1.275 -6.614,1.879 -11.18,1.879 l -16.473,0.004 h -4.015 l -0.188,-1.375 c -0.108,-0.776 -0.311,-1.03 -0.37,-1.09 -0.133,-0.132 -0.233,-0.162 -0.356,-0.165 -0.09,0.011 -0.644,0.099 -2.589,0.857 -3.03,1.177 -5.961,1.773 -8.714,1.773 -3.743,0 -7.325,-0.937 -10.648,-2.787 -3.337,-1.858 -6.023,-4.505 -7.982,-7.866 -1.959,-3.356 -2.953,-6.964 -2.953,-10.718 0,-3.567 0.899,-6.975 2.67,-10.13 1.789,-3.19 4.368,-5.67 7.662,-7.371 3.241,-1.674 6.982,-2.522 11.116,-2.522 3.168,0 5.996,0.529 8.406,1.575 2.401,1.042 4.728,2.73 6.916,5.017 l 0.441,0.462 v 8.087 l -2.798,-3.256 c -1.977,-2.299 -3.851,-3.924 -5.573,-4.831 -1.669,-0.88 -3.54,-1.325 -5.561,-1.325 -2.42,0 -4.39,0.58 -5.85,1.723 -1.488,1.162 -2.608,2.948 -3.332,5.303 -0.773,2.519 -1.165,5.367 -1.165,8.465 0,3.096 0.528,5.935 1.571,8.442 0.766,1.85 1.945,3.304 3.601,4.448 1.644,1.133 3.397,1.685 5.361,1.685 2.367,0 4.428,-0.747 6.304,-2.287 1.865,-1.529 3.167,-3.802 3.87,-6.754 l 0.291,-1.223 h 3.885 v 11.767 h 1.335 c 0.907,0 1.384,-0.168 1.624,-0.31 0.401,-0.237 0.506,-0.417 0.53,-0.472 0.029,-0.097 0.177,-1.551 0.177,-3.786 v -24.066 c 0,-2.004 -0.093,-2.649 -0.13,-2.825 -0.113,-0.231 -0.304,-0.44 -0.583,-0.606 -0.176,-0.106 -0.62,-0.282 -1.618,-0.282 h -2.801 v -4.132 h 17.939 c 2.476,0 4.268,0.117 5.478,0.353 2.6,0.492 4.855,1.205 6.691,2.121 1.877,0.934 3.557,2.193 4.993,3.738 1.444,1.555 2.631,3.535 3.526,5.885 0.893,2.337 1.345,5.285 1.345,8.04 0,3.985 -0.917,7.616 -2.728,10.795 M 473.23,227.609 c -1.274,-1.657 -3.101,-2.46 -5.592,-2.46 -0.889,0 -1.236,0.156 -1.321,0.204 -0.012,0.006 -0.015,0.008 -0.023,0.012 -0.029,0.172 -0.101,0.713 -0.101,2.159 v 27.792 c 2.364,-0.084 3.581,-0.389 4.197,-0.655 1.499,-0.65 2.714,-2.371 3.714,-4.255 1.336,-2.556 2.015,-6.094 2.015,-10.506 0,-5.441 -0.971,-9.82 -2.889,-12.291 m -2.207,28.513 c -1.29,0.557 -3.43,0.827 -6.421,0.809 v -29.407 c 0,-1.511 0.071,-2.438 0.215,-2.78 0.142,-0.342 0.384,-0.603 0.725,-0.782 0.483,-0.27 1.182,-0.403 2.096,-0.403 2.99,0 5.273,1.023 6.851,3.074 2.149,2.771 3.224,7.437 3.224,13.267 0,4.696 -0.735,8.447 -2.203,11.252 -1.165,2.196 -2.66,4.179 -4.487,4.97 M 222.155,224.203 c -2.243,-1.723 -5.225,-2.585 -8.946,-2.585 h -2.38 c -1.136,0 -1.958,0.155 -2.468,0.471 -0.509,0.313 -0.856,0.716 -1.043,1.204 -0.185,0.49 -0.279,1.834 -0.279,4.029 v 11.233 c 1.901,0 3.354,-0.251 4.353,-0.75 1,-0.5 1.878,-1.477 2.631,-2.928 0.753,-1.451 1.249,-3.315 1.487,-5.59 h 1.128 v 20.889 h -1.128 c -0.316,-3.098 -1.04,-5.441 -2.177,-7.029 -1.139,-1.587 -2.971,-2.381 -5.499,-2.381 h -0.795 v 16.231 h 4.094 c 3.019,0 5.076,-0.177 6.174,-0.529 1.883,-0.589 3.338,-1.511 4.368,-2.767 1.029,-1.255 1.827,-3.325 2.395,-6.208 h 1.129 v 11.809 h -45.843 v -1.034 c 2.224,0.038 3.809,-0.514 4.755,-1.658 0.688,-0.848 1.033,-2.476 1.033,-4.882 v -17.106 l -19.595,24.68 h -14.136 v -1.034 c 1.216,-0.041 2.148,-0.231 2.794,-0.571 0.647,-0.34 1.391,-1.05 2.234,-2.13 l 0.851,-1.055 V 226.37 c 0,-2.145 -0.431,-3.664 -1.294,-4.557 -0.862,-0.895 -2.392,-1.351 -4.587,-1.372 v -1.034 h 14.161 v 1.034 h -0.941 c -1.353,0 -2.553,0.407 -3.602,1.221 -1.049,0.815 -1.572,2.385 -1.572,4.708 v 25.383 l 26.857,-33.239 h 0.994 v 33.214 c 0,1.894 0.161,3.23 0.483,4.009 0.324,0.779 0.773,1.342 1.35,1.686 0.578,0.346 1.708,0.627 3.388,0.845 h 0.633 c 1.289,0 2.307,-0.278 3.049,-0.831 0.529,-0.377 0.891,-0.911 1.085,-1.603 0.097,-0.416 0.146,-1.533 0.146,-3.354 v -26.251 c 0,-2.02 -0.108,-3.264 -0.321,-3.739 -0.274,-0.673 -0.665,-1.148 -1.174,-1.426 -0.703,-0.416 -1.633,-0.623 -2.785,-0.623 h -1.317 v -1.034 h 34.432 l 1.793,12.673 h -1.083 c -0.98,-3.528 -2.591,-6.154 -4.832,-7.877 m 138.076,0 c -2.242,-1.723 -5.224,-2.585 -8.944,-2.585 h -2.381 c -1.135,0 -1.959,0.155 -2.468,0.471 -0.508,0.313 -0.857,0.716 -1.042,1.204 -0.187,0.49 -0.278,1.834 -0.278,4.029 v 11.233 c 1.9,0 3.351,-0.251 4.351,-0.75 1.001,-0.5 1.878,-1.477 2.632,-2.928 0.754,-1.451 1.249,-3.315 1.484,-5.59 h 1.13 v 20.889 h -1.13 c -0.314,-3.098 -1.038,-5.441 -2.176,-7.029 -1.137,-1.587 -2.97,-2.381 -5.497,-2.381 h -0.794 v 16.231 h 4.093 c 3.018,0 5.077,-0.177 6.175,-0.529 1.881,-0.589 3.337,-1.511 4.365,-2.767 1.03,-1.255 1.828,-3.325 2.397,-6.208 h 1.13 v 11.809 h -33.357 v -1.034 h 1.319 c 1.29,0 2.307,-0.278 3.048,-0.831 0.528,-0.377 0.89,-0.911 1.086,-1.603 0.097,-0.416 0.147,-1.533 0.147,-3.354 v -26.251 c 0,-2.02 -0.109,-3.264 -0.325,-3.739 -0.271,-0.673 -0.662,-1.148 -1.173,-1.426 -0.703,-0.416 -1.63,-0.623 -2.783,-0.623 h -1.319 v -1.034 h 34.433 l 1.792,12.673 h -1.083 c -0.977,-3.528 -2.589,-6.154 -4.832,-7.877 m -100.254,4.043 c -0.959,-2.752 -2.299,-4.754 -4.022,-6.006 -1.351,-0.98 -3.033,-1.469 -5.048,-1.469 -2.996,0 -5.324,1.136 -6.986,3.408 -2.389,3.25 -3.582,8.272 -3.582,15.067 0,5.718 0.771,10.103 2.318,13.157 1.9,3.722 4.668,5.582 8.308,5.582 1.976,0 3.723,-0.539 5.24,-1.615 1.518,-1.078 2.763,-2.923 3.742,-5.537 0.98,-2.614 1.469,-6.555 1.469,-11.822 0,-4.425 -0.48,-8.014 -1.439,-10.765 m -9.364,31.621 c -5.882,0.235 -10.837,-1.621 -14.864,-5.568 -4.029,-3.947 -6.042,-8.877 -6.042,-14.791 0,-5.27 1.547,-9.823 4.646,-13.662 3.919,-4.858 9.467,-7.285 16.641,-7.285 7.155,0 12.694,2.544 16.614,7.637 2.959,3.839 4.441,8.285 4.441,13.339 0,5.914 -1.986,10.839 -5.954,14.776 -3.971,3.938 -9.131,5.789 -15.482,5.554 m 80.876,-23.712 h -19.383 v -1.034 h 1.027 c 0.957,0 1.772,-0.189 2.445,-0.564 0.676,-0.375 1.119,-0.796 1.334,-1.26 0.215,-0.465 0.322,-1.488 0.322,-3.069 v -8.299 c -1.053,-0.393 -2.083,-0.692 -3.088,-0.896 -1.006,-0.207 -1.988,-0.309 -2.944,-0.309 -2.753,0 -5.13,0.676 -7.132,2.028 -2.001,1.351 -3.449,3.467 -4.348,6.346 -0.899,2.879 -1.347,6.228 -1.347,10.048 0,3.154 0.412,6.228 1.236,9.225 0.823,2.996 2.227,5.333 4.207,7.007 1.982,1.675 4.462,2.513 7.445,2.513 3.118,0 5.991,-1 8.619,-2.999 2.63,-2 4.6,-4.921 5.916,-8.763 h 1.034 v 14.067 h -1.034 c -0.393,-1.131 -0.825,-1.9 -1.296,-2.306 -0.471,-0.408 -0.981,-0.611 -1.53,-0.611 -0.352,0 -1.496,0.368 -3.429,1.105 -1.934,0.737 -3.33,1.183 -4.193,1.341 -1.591,0.314 -3.375,0.471 -5.358,0.471 -6.396,0 -11.703,-2.065 -15.922,-6.194 -4.219,-4.129 -6.327,-9.188 -6.327,-15.176 0,-3.346 0.686,-6.37 2.058,-9.071 1.076,-2.093 2.57,-3.976 4.481,-5.651 1.909,-1.672 4.115,-3.023 6.613,-4.05 2.498,-1.027 5.639,-1.54 9.42,-1.54 2.958,0 5.814,0.287 8.566,0.859 2.753,0.575 5.403,1.426 7.951,2.556 v 8.299 c 0,1.462 0.089,2.381 0.265,2.758 0.311,0.711 0.755,1.22 1.331,1.527 0.577,0.305 1.597,0.508 3.061,0.608 z m 66.566,-7.909 c -0.957,-2.752 -2.299,-4.754 -4.023,-6.006 -1.35,-0.98 -3.031,-1.469 -5.048,-1.469 -2.994,0 -5.323,1.136 -6.986,3.408 -2.388,3.25 -3.582,8.272 -3.582,15.067 0,5.718 0.772,10.103 2.319,13.157 1.899,3.722 4.668,5.582 8.309,5.582 1.976,0 3.722,-0.539 5.24,-1.615 1.516,-1.078 2.763,-2.923 3.741,-5.537 0.978,-2.614 1.469,-6.555 1.469,-11.822 0,-4.425 -0.481,-8.014 -1.439,-10.765 m -9.365,31.621 c -5.88,0.235 -10.836,-1.621 -14.863,-5.568 -4.029,-3.947 -6.044,-8.877 -6.044,-14.791 0,-5.27 1.549,-9.823 4.647,-13.662 3.92,-4.858 9.468,-7.285 16.643,-7.285 7.155,0 12.692,2.544 16.613,7.637 2.96,3.839 4.439,8.285 4.439,13.339 0,5.914 -1.984,10.839 -5.954,14.776 -3.97,3.938 -9.129,5.789 -15.481,5.554 M 280.014,245.941 c -1.586,0 -2.936,-0.556 -4.045,-1.665 -1.111,-1.11 -1.664,-2.458 -1.664,-4.044 0,-1.563 0.553,-2.9 1.664,-4.01 1.109,-1.11 2.459,-1.665 4.045,-1.665 1.56,0 2.899,0.555 4.007,1.665 1.112,1.11 1.667,2.447 1.667,4.01 0,1.586 -0.555,2.934 -1.667,4.044 -1.108,1.109 -2.447,1.665 -4.007,1.665" /></g></g></g></svg>
