<?xml version="1.0" encoding="UTF-8" standalone="no"?>
<svg
   id="svg"
   version="1.1"
   width="400"
   height="70"
   viewBox="0, 0, 400,70"
   sodipodi:docname="logo.svg"
   inkscape:version="1.1 (c68e22c387, 2021-05-23)"
   xmlns:inkscape="http://www.inkscape.org/namespaces/inkscape"
   xmlns:sodipodi="http://sodipodi.sourceforge.net/DTD/sodipodi-0.dtd"
   xmlns="http://www.w3.org/2000/svg"
   xmlns:svg="http://www.w3.org/2000/svg">
  <defs
     id="defs7" />
  <sodipodi:namedview
     id="namedview5"
     pagecolor="#505050"
     bordercolor="#eeeeee"
     borderopacity="1"
     inkscape:pageshadow="0"
     inkscape:pageopacity="0"
     inkscape:pagecheckerboard="0"
     showgrid="false"
     inkscape:zoom="2.645"
     inkscape:cx="200.18904"
     inkscape:cy="-2.8355388"
     inkscape:window-width="1360"
     inkscape:window-height="745"
     inkscape:window-x="-8"
     inkscape:window-y="-8"
     inkscape:window-maximized="1"
     inkscape:current-layer="svg" />
  <g
     id="svgg"
     style="fill:#ffffff">
    <path
       id="path0"
       d="M18.054 9.487 C 14.433 10.365,11.263 13.331,10.143 16.892 C 9.516 18.886,9.457 32.508,10.068 34.500 C 11.180 38.128,13.750 40.686,17.347 41.742 C 18.377 42.045,20.152 42.088,33.950 42.152 L 49.400 42.222 49.400 47.511 L 49.400 52.800 30.000 52.800 L 10.600 52.800 10.600 58.300 L 10.600 63.800 31.050 63.797 C 54.992 63.794,54.133 63.875,57.094 61.343 C 60.052 58.815,60.460 57.277,60.553 48.300 C 60.653 38.727,60.296 37.101,57.479 34.275 C 54.279 31.066,53.888 31.008,35.550 31.003 L 20.600 31.000 20.600 25.600 L 20.600 20.200 38.800 20.200 L 57.000 20.200 57.000 14.700 L 57.000 9.200 38.050 9.217 C 23.488 9.230,18.858 9.293,18.054 9.487 M77.900 9.403 C 74.019 10.177,70.780 13.127,69.593 16.971 C 68.986 18.934,68.982 54.483,69.588 56.852 C 70.523 60.509,72.692 62.613,76.435 63.496 C 77.517 63.751,81.030 63.795,100.750 63.797 L 123.800 63.800 123.800 47.400 L 123.800 31.000 107.400 31.000 L 91.000 31.000 91.000 36.600 L 91.000 42.200 101.800 42.200 L 112.600 42.200 112.600 47.500 L 112.600 52.800 96.400 52.800 L 80.200 52.800 80.200 36.500 L 80.200 20.200 101.100 20.200 L 122.000 20.200 122.000 14.700 L 122.000 9.200 100.350 9.222 C 88.442 9.234,78.340 9.316,77.900 9.403 M169.800 14.700 L 169.800 20.200 175.300 20.200 L 180.800 20.200 180.800 36.500 L 180.800 52.800 175.300 52.800 L 169.800 52.800 169.800 58.300 L 169.800 63.800 186.200 63.800 L 202.600 63.800 202.600 58.300 L 202.600 52.800 197.200 52.800 L 191.800 52.800 191.800 31.000 L 191.800 9.200 180.800 9.200 L 169.800 9.200 169.800 14.700 M218.500 9.403 C 214.500 10.201,211.131 13.374,210.106 17.308 C 209.567 19.377,209.654 54.767,210.204 56.914 C 211.112 60.465,213.154 62.493,216.748 63.412 C 218.753 63.925,254.456 64.014,256.824 63.512 C 260.656 62.700,263.061 60.242,263.900 56.282 C 264.274 54.516,264.347 19.532,263.981 17.760 C 263.174 13.864,260.021 10.603,256.089 9.597 C 254.443 9.176,220.516 9.001,218.500 9.403 M280.529 9.517 C 276.502 10.492,273.093 14.134,272.401 18.200 C 272.010 20.501,272.233 55.621,272.647 56.974 C 273.753 60.584,276.059 62.767,279.546 63.506 C 281.971 64.020,317.629 63.930,319.683 63.404 C 323.317 62.475,325.397 60.369,326.352 56.652 C 326.670 55.416,326.700 53.717,326.700 36.800 L 326.700 18.300 326.257 16.892 C 325.098 13.209,321.918 10.270,318.251 9.493 C 316.266 9.073,282.277 9.094,280.529 9.517 M343.500 9.403 C 339.500 10.201,336.131 13.374,335.106 17.308 C 334.567 19.377,334.654 54.767,335.204 56.914 C 336.112 60.465,338.154 62.493,341.748 63.412 C 343.753 63.925,379.456 64.014,381.824 63.512 C 385.656 62.700,388.061 60.242,388.900 56.282 C 389.274 54.516,389.347 19.532,388.981 17.760 C 388.174 13.864,385.021 10.603,381.089 9.597 C 379.443 9.176,345.516 9.001,343.500 9.403 M253.200 36.500 L 253.200 52.800 237.000 52.800 L 220.800 52.800 220.800 36.500 L 220.800 20.200 237.000 20.200 L 253.200 20.200 253.200 36.500 M315.600 36.500 L 315.600 52.800 299.400 52.800 L 283.200 52.800 283.200 36.500 L 283.200 20.200 299.400 20.200 L 315.600 20.200 315.600 36.500 M378.200 36.500 L 378.200 52.800 362.000 52.800 L 345.800 52.800 345.800 36.500 L 345.800 20.200 362.000 20.200 L 378.200 20.200 378.200 36.500 M131.800 36.600 L 131.800 42.200 148.300 42.200 L 164.800 42.200 164.800 36.600 L 164.800 31.000 148.300 31.000 L 131.800 31.000 131.800 36.600 "
       stroke="none"
       fill="#000000"
       fill-rule="evenodd"
       style="fill:#ffffff" />
  </g>
</svg>
