<?xml version="1.0" encoding="UTF-8" standalone="no"?>
<!-- Created with Inkscape (http://www.inkscape.org/) -->

<svg
   width="79.3116mm"
   height="21.747995mm"
   viewBox="0 0 281.02532 77.059788"
   id="svg2"
   version="1.1"
   inkscape:version="1.1 (c68e22c387, 2021-05-23)"
   sodipodi:docname="logo.svg"
   xmlns:inkscape="http://www.inkscape.org/namespaces/inkscape"
   xmlns:sodipodi="http://sodipodi.sourceforge.net/DTD/sodipodi-0.dtd"
   xmlns="http://www.w3.org/2000/svg"
   xmlns:svg="http://www.w3.org/2000/svg"
   xmlns:rdf="http://www.w3.org/1999/02/22-rdf-syntax-ns#"
   xmlns:cc="http://creativecommons.org/ns#"
   xmlns:dc="http://purl.org/dc/elements/1.1/">
  <defs
     id="defs4" />
  <sodipodi:namedview
     id="base"
     pagecolor="#ffffff"
     bordercolor="#666666"
     borderopacity="1.0"
     inkscape:pageopacity="0.0"
     inkscape:pageshadow="2"
     inkscape:zoom="1.7662638"
     inkscape:cx="182.5888"
     inkscape:cy="-29.157592"
     inkscape:document-units="px"
     inkscape:current-layer="layer1"
     showgrid="false"
     inkscape:window-width="1360"
     inkscape:window-height="745"
     inkscape:window-x="-8"
     inkscape:window-y="-8"
     inkscape:window-maximized="1"
     inkscape:pagecheckerboard="0" />
  <metadata
     id="metadata7">
    <rdf:RDF>
      <cc:Work
         rdf:about="">
        <dc:format>image/svg+xml</dc:format>
        <dc:type
           rdf:resource="http://purl.org/dc/dcmitype/StillImage" />
        <dc:title />
      </cc:Work>
    </rdf:RDF>
  </metadata>
  <g
     inkscape:label="Layer 1"
     inkscape:groupmode="layer"
     id="layer1"
     transform="translate(-9.4950164,-964.58991)">
    <g
       style="font-style:normal;font-weight:normal;font-size:98.3948px;line-height:125%;font-family:sans-serif;letter-spacing:0px;word-spacing:0px;fill:#ffffff;fill-opacity:1;stroke:#ffffff;stroke-width:1px;stroke-linecap:butt;stroke-linejoin:miter;stroke-opacity:1"
       id="text4153-2"
       transform="translate(-98.994949,565.68542)" />
    <g
       style="font-style:normal;font-weight:normal;font-size:98.3948px;line-height:125%;font-family:sans-serif;letter-spacing:0px;word-spacing:0px;fill:#ffffff;fill-opacity:1;stroke:#ffffff;stroke-width:1px;stroke-linecap:butt;stroke-linejoin:miter;stroke-opacity:1"
       id="text4153-0"
       transform="translate(-98.994949,565.68542)">
      <path
         d="m 340.80048,422.60975 18.39982,-20.36772 h 24.4019 l -30.30559,31.78151 31.9783,38.66915 h -26.2714 l -18.99019,-22.5324 -19.87574,22.5324 h -24.59869 l 32.47027,-35.61891 -30.79756,-34.83175 h 26.46819 z"
         style="font-style:normal;font-variant:normal;font-weight:900;font-stretch:normal;font-family:PresicavW00-Heavy;-inkscape-font-specification:'PresicavW00-Heavy Heavy';fill:#ffffff;stroke:#ffffff;stroke-opacity:1"
         id="path4383"
         inkscape:connector-curvature="0" />
    </g>
    <path
       style="fill:#ffffff;fill-opacity:1;stroke:#ffffff;stroke-width:0.951226;stroke-opacity:1"
       d="m 187.38393,1017.9111 v 23.263 h -2.37021 v -23.263 z"
       id="rect4147-7"
       inkscape:connector-curvature="0" />
    <path
       style="fill:#ffffff;fill-opacity:1;stroke:#ffffff;stroke-width:1.10365;stroke-opacity:1"
       d="m 229.52199,968.33007 h -33.46778 v -2.21778 h 33.46778 z"
       id="rect4147-2-16"
       inkscape:connector-curvature="0" />
    <path
       style="fill:#ffffff;fill-opacity:1;stroke:#ffffff;stroke-width:1.10365;stroke-opacity:1"
       d="m 288.98631,968.33007 h -33.46778 v -2.21778 h 33.46778 z"
       id="rect4147-2-6-9"
       inkscape:connector-curvature="0" />
    <path
       style="fill:#ffffff;fill-opacity:1;stroke:#ffffff;stroke-width:1.10365;stroke-opacity:1"
       d="m 227.64699,1039.9372 h -33.46778 v -2.2178 h 33.46778 z"
       id="rect4147-2-1-5"
       inkscape:connector-curvature="0" />
    <path
       style="fill:#ffffff;fill-opacity:1;stroke:#ffffff;stroke-width:1.10365;stroke-opacity:1"
       d="m 289.96846,1040.6515 h -33.46778 v -2.2178 h 33.46778 z"
       id="rect4147-2-6-7-6"
       inkscape:connector-curvature="0" />
    <g
       style="font-style:normal;font-weight:normal;font-size:98.3948px;line-height:125%;font-family:sans-serif;letter-spacing:0px;word-spacing:0px;fill:#ffffff;fill-opacity:1;stroke:#ffffff;stroke-width:1px;stroke-linecap:butt;stroke-linejoin:miter;stroke-opacity:1"
       id="text4153-2-9"
       transform="translate(-98.994949,565.68542)">
      <path
         d="m 283.90846,472.83252 h -80.58532 v -17.61266 q 5.41171,-5.7069 11.61058,-10.03627 5.41172,-3.739 11.21701,-6.29727 5.90368,-2.55826 11.51218,-4.32937 5.7069,-1.8695 10.72503,-3.14863 5.11653,-1.37752 8.95393,-2.65666 3.83739,-1.27913 6.10047,-2.75505 2.26308,-1.47592 2.26308,-3.64061 0,-2.55826 -3.14863,-4.42776 -3.14863,-1.9679 -10.82342,-1.9679 -5.60851,0 -11.11861,0.98395 -5.51011,0.88555 -10.62664,2.45987 -5.01813,1.57432 -9.54429,3.64061 -4.42776,2.06629 -7.87158,4.32937 l -7.87158,-16.03835 q 3.24703,-2.06629 7.77318,-4.03419 4.62456,-2.06629 10.62664,-3.6406 6.00208,-1.57432 13.48008,-2.55827 7.5764,-0.98394 16.72711,-0.98394 7.18282,0 13.08651,1.67271 6.00208,1.57431 10.23305,4.42776 4.23098,2.85345 6.49406,6.88764 2.36147,4.03418 2.36147,8.85552 0,5.8053 -1.67271,9.4459 -1.67271,3.64061 -5.31332,6.19887 -3.6406,2.55827 -9.44589,4.52616 -5.7069,1.8695 -13.77527,4.13258 -3.739,1.08234 -8.16677,2.36148 -4.42776,1.27913 -8.36355,2.55826 -3.8374,1.27913 -6.78924,2.45987 -2.85345,1.18074 -3.44382,1.9679 h 55.39626 z"
         style="font-style:normal;font-variant:normal;font-weight:900;font-stretch:normal;font-family:PresicavW00-Heavy;-inkscape-font-specification:'PresicavW00-Heavy Heavy';fill:#ffffff;stroke:#ffffff;stroke-opacity:1"
         id="path4375"
         inkscape:connector-curvature="0" />
    </g>
    <g
       style="font-style:normal;font-weight:normal;font-size:98.3948px;line-height:125%;font-family:sans-serif;letter-spacing:0px;word-spacing:0px;fill:#ffffff;fill-opacity:1;stroke:#ffffff;stroke-width:1px;stroke-linecap:butt;stroke-linejoin:miter;stroke-opacity:1"
       id="text4153-1-7"
       transform="translate(-98.994949,565.68542)">
      <path
         d="m 135.27536,443.78053 v -14.956 h 22.04043 q 5.11653,0 8.56035,-0.49198 3.44381,-0.49197 5.5101,-1.37752 2.16469,-0.88556 3.05024,-2.16469 0.88555,-1.27913 0.88555,-2.95184 0,-3.14863 -4.32937,-4.82134 -4.23097,-1.77111 -14.66082,-1.77111 -5.21492,0 -10.23305,0.78716 -5.01813,0.78716 -9.4459,2.06629 -4.32937,1.18073 -7.87158,2.75505 -3.54221,1.47592 -5.90369,2.85345 l -6.98603,-16.72711 q 2.16469,-1.08234 6.39566,-2.36148 4.32937,-1.37752 9.83948,-2.45986 5.6085,-1.18074 12.10256,-1.9679 6.49405,-0.78716 13.0865,-0.78716 7.08443,0 13.57848,1.18074 6.49405,1.18074 11.41379,3.739 5.01814,2.45987 7.96998,6.29727 2.95184,3.739 2.95184,8.95392 0,3.24703 -1.08234,5.90369 -0.98395,2.65665 -2.65666,4.72294 -1.67271,1.9679 -3.83739,3.34543 -2.0663,1.37752 -4.13259,2.06629 4.13259,0.39358 6.98603,2.06629 2.85345,1.67271 4.62456,4.03418 1.7711,2.26308 2.45987,4.91974 0.78715,2.55826 0.78715,4.72295 0,12.10256 -10.42984,17.61266 -10.33145,5.41171 -31.68312,5.41171 -6.98602,0 -13.57847,-0.98394 -6.49406,-0.98395 -12.00417,-2.45987 -5.5101,-1.47592 -9.74108,-3.14863 -4.23097,-1.77111 -6.49405,-3.24703 l 7.67479,-16.13674 q 1.8695,1.47592 6.29726,3.24702 4.52616,1.67271 9.93788,3.14864 5.41171,1.47592 10.72503,2.45987 5.41171,0.98394 9.05231,0.98394 3.9358,0 7.47801,-0.39358 3.6406,-0.39358 6.29726,-1.27913 2.75506,-0.88555 4.32937,-2.26308 1.67271,-1.37752 1.67271,-3.34542 0,-4.23097 -4.42776,-5.7069 -4.32937,-1.47592 -14.16885,-1.47592 z"
         style="font-style:normal;font-variant:normal;font-weight:900;font-stretch:normal;font-family:PresicavW00-Heavy;-inkscape-font-specification:'PresicavW00-Heavy Heavy';fill:#ffffff;stroke:#ffffff;stroke-opacity:1"
         id="path4372"
         inkscape:connector-curvature="0" />
    </g>
    <path
       style="fill:#ffffff;fill-opacity:1;stroke:#ffffff;stroke-width:0.951226;stroke-opacity:1"
       d="m 17.328677,969.98156 9.100235,21.40924 -2.181323,0.9272 -9.100235,-21.40925 z"
       id="rect4147-24-5"
       inkscape:connector-curvature="0" />
    <path
       style="fill:#ffffff;fill-opacity:1;stroke:#ffffff;stroke-width:0.951226;stroke-opacity:1"
       d="m 21.508776,1010.7793 -11.366399,20.2971 2.068014,1.1581 11.366399,-20.2971 z"
       id="rect4147-24-7-0"
       inkscape:connector-curvature="0" />
    <path
       style="fill:#ffffff;fill-opacity:1;stroke:#ffffff;stroke-width:0.951226;stroke-opacity:1"
       d="m 38.758931,990.4111 v 23.2631 h -2.37021 v -23.2631 z"
       id="rect4147-0-6"
       inkscape:connector-curvature="0" />
    <path
       style="fill:#ffffff;fill-opacity:1;stroke:#ffffff;stroke-width:0.951226;stroke-opacity:1"
       d="m 106.71105,974.19726 9.10023,21.40925 -2.18132,0.92719 -9.10023,-21.40924 z"
       id="rect4147-24-6-7"
       inkscape:connector-curvature="0" />
  </g>
</svg>
