<?xml version="1.0" encoding="UTF-8" standalone="no"?>
<svg
   id="svg"
   width="380.76971"
   height="158.73476"
   viewBox="0 0 380.76971 158.73476"
   version="1.1"
   sodipodi:docname="logo.svg"
   inkscape:version="1.1 (c68e22c387, 2021-05-23)"
   xmlns:inkscape="http://www.inkscape.org/namespaces/inkscape"
   xmlns:sodipodi="http://sodipodi.sourceforge.net/DTD/sodipodi-0.dtd"
   xmlns="http://www.w3.org/2000/svg"
   xmlns:svg="http://www.w3.org/2000/svg">
  <defs
     id="defs7" />
  <sodipodi:namedview
     id="namedview5"
     pagecolor="#505050"
     bordercolor="#eeeeee"
     borderopacity="1"
     inkscape:pageshadow="0"
     inkscape:pageopacity="0"
     inkscape:pagecheckerboard="0"
     showgrid="false"
     inkscape:zoom="1.4644198"
     inkscape:cx="153.9859"
     inkscape:cy="41.996156"
     inkscape:window-width="1360"
     inkscape:window-height="745"
     inkscape:window-x="-8"
     inkscape:window-y="-8"
     inkscape:window-maximized="1"
     inkscape:current-layer="svg" />
  <g
     id="svgg"
     style="fill:#ffffff"
     transform="translate(-9.5328537,-18.969045)">
    <path
       id="path0"
       d="m 167.249,20.056 c -4.595,2.275 -6.029,9.479 -2.574,12.935 2.271,2.27 6.182,2.26 8.221,-0.022 3.41,-3.816 0.7,-9.666 -4.087,-8.821 -1.33,0.235 -1.375,0.197 -0.66,-0.556 0.422,-0.444 1.654,-0.927 2.738,-1.072 1.867,-0.251 1.97,-0.348 1.97,-1.868 0,-1.999 -2.282,-2.242 -5.608,-0.596 m 10.965,3.436 c -1.532,2.723 -2.5,5.018 -2.5,5.929 v 1.486 l 2.976,0.142 2.977,0.141 0.147,1.786 c 0.221,2.664 3.9,2.825 3.9,0.17 0,-0.997 0.274,-1.721 0.715,-1.89 0.419,-0.161 0.714,-0.875 0.714,-1.732 0,-0.857 -0.295,-1.572 -0.714,-1.733 -0.561,-0.215 -0.715,-1.184 -0.715,-4.509 v -4.234 h -2.5 -2.5 l -2.5,4.444 m 3.691,1.984 c 0,1.965 -0.098,2.143 -1.185,2.143 h -1.184 l 1.041,-2.143 c 0.573,-1.178 1.106,-2.143 1.185,-2.143 0.078,0 0.143,0.965 0.143,2.143 m -34.524,0.104 c -6.663,1.619 -8.038,14.439 -1.952,18.2 6.86,4.24 14.533,-0.293 14.561,-8.603 0.024,-7.51 -5.111,-11.419 -12.609,-9.597 M 12.857,35.22 v 9.542 h 2.842 2.841 l 0.135,-5.357 0.135,-5.357 1.844,5.374 1.844,5.374 4.346,-0.136 4.346,-0.136 V 35.238 25.952 L 28.231,25.811 25.272,25.67 25.136,30.573 25,35.476 23.288,30.714 21.575,25.952 17.216,25.815 12.857,25.679 v 9.541 m 21.538,-0.101 0.129,9.405 3.69,0.139 3.691,0.139 v -9.544 -9.544 h -3.82 -3.819 l 0.129,9.405 m 10.579,-8.794 c -0.129,0.336 -0.176,4.568 -0.104,9.405 l 0.13,8.794 2.959,0.141 2.96,0.141 0.136,-4.903 0.135,-4.903 1.713,4.762 1.712,4.762 4.359,0.137 4.359,0.137 v -9.542 -9.542 h -2.857 -2.857 l -0.03,5.119 c -0.035,5.809 -0.174,5.734 -2.635,-1.428 l -1.268,-3.691 h -4.239 c -3.008,0 -4.307,0.177 -4.473,0.611 m 20.264,2.008 v 2.619 h 2.13 2.13 l 0.132,6.786 0.132,6.786 3.69,0.139 3.691,0.139 v -6.925 -6.925 h 2.143 2.143 v -2.619 -2.619 h -8.096 -8.095 v 2.619 m 18.33,0.266 c -0.186,1.601 -0.183,5.892 0.006,9.537 l 0.343,6.626 h 7.089 7.089 v -2.619 -2.619 h -3.844 c -5.291,0 -5.568,-1.577 -0.318,-1.808 l 3.21,-0.14 v -2.338 -2.337 l -3.21,-0.141 c -5.096,-0.224 -4.938,-1.713 0.203,-1.906 l 3.721,-0.14 v -2.381 -2.381 l -6.975,-0.131 -6.976,-0.132 -0.338,2.91 m 16.908,6.621 v 9.542 h 2.841 2.841 l 0.135,-5.119 0.136,-5.119 1.837,5.119 1.838,5.119 h 4.234 4.233 v -9.524 -9.524 h -2.857 -2.857 v 4.842 c 0,5.671 -0.072,5.665 -2.12,-0.16 l -1.563,-4.444 -4.349,-0.137 -4.349,-0.136 v 9.541 m 21.186,-6.608 c -0.185,1.594 -0.182,5.879 0.007,9.524 l 0.343,6.626 5.303,-0.011 c 9.66,-0.019 13.862,-4.169 12.221,-12.072 -1.127,-5.428 -3.731,-6.939 -11.989,-6.954 l -5.549,-0.011 -0.336,2.898 m 48.091,-0.696 c 0.933,0.934 0.781,2.516 -0.308,3.198 -1.649,1.033 -3.172,-1.959 -1.731,-3.4 0.757,-0.757 1.115,-0.721 2.039,0.202 m -38.63,2.69 c 1.977,1.446 1.385,9.001 -0.75,9.559 -1.646,0.43 -1.802,0.008 -1.802,-4.876 0,-5.488 0.414,-6.247 2.552,-4.683 m 20.767,0.091 c 1.407,1.694 0.627,9.303 -0.953,9.303 -1.307,0 -1.889,-1.447 -1.889,-4.7 0,-4.521 1.241,-6.532 2.842,-4.603 M 73.094,55.493 C 33.952,60.295 9.599,86.797 9.533,124.662 9.469,161.866 30.402,181.925 64.105,176.956 80.296,174.57 91.086,166.414 96.463,152.5 l 1.334,-3.452 h 20.863 20.864 v 13.339 13.34 l 15.579,-0.125 15.579,-0.126 0.04,-13.095 0.04,-13.095 8.428,-0.13 8.429,-0.13 v 13.376 13.376 l 26.548,-0.191 c 22.557,-0.163 27.048,-0.311 29.881,-0.979 12.591,-2.973 21.716,-7.94 30.28,-16.483 4.494,-4.483 5.991,-6.431 11.239,-14.621 0.445,-0.695 0.573,2.674 0.595,15.663 l 0.028,16.547 h 24.106 c 31.174,0 36.827,-0.818 48.275,-6.993 C 401.489,145.576 400.709,84.558 357.216,62.656 346.242,57.13 341.89,56.543 311.429,56.48 l -25,-0.051 -0.239,16.628 -0.238,16.628 -1.276,-2.342 c -8.377,-15.377 -24.537,-26.916 -42.032,-30.015 -4.403,-0.779 -47.36,-1.433 -52.763,-0.803 l -2.262,0.264 v 33.223 33.222 l -6.786,0.335 c -3.732,0.185 -7.428,0.26 -8.214,0.169 l -1.429,-0.167 -0.284,-5.713 c -0.157,-3.142 -0.239,-18.094 -0.183,-33.225 0.06,-16.274 -0.077,-27.623 -0.335,-27.783 -0.663,-0.409 -36.554,-0.638 -37.632,-0.239 -0.6,0.222 -7.111,11.005 -17.933,29.699 -9.345,16.143 -17.12,29.479 -17.278,29.637 -0.158,0.158 -1.274,-1.744 -2.482,-4.226 -7.898,-16.236 -27.645,-21.208 -46.314,-11.66 -4.226,2.161 -4.26,2.158 -3.026,-0.325 5.621,-11.308 18.672,-17.842 37.372,-18.712 l 6.667,-0.31 V 67.857 55 l -5.714,-0.075 c -3.143,-0.041 -8.072,0.214 -10.954,0.568 m 162.349,27.062 c 19.825,9.802 24.079,43.809 7.654,61.174 -5.528,5.844 -10.896,8.098 -19.407,8.148 l -4.642,0.028 V 116.144 80.383 l 6.335,0.166 c 6.251,0.163 6.386,0.19 10.06,2.006 m 95.466,-1.177 c 21.441,6.674 27.826,43.146 10.885,62.177 -5.104,5.733 -10.26,7.952 -18.699,8.047 l -5.714,0.065 -0.122,-35.596 -0.122,-35.595 h 5.437 c 3.998,0 6.203,0.239 8.335,0.902 m -191.583,41.785 c -0.202,0.525 -17.659,0.549 -17.659,0.023 0,-0.112 3.964,-7.399 8.809,-16.192 l 8.81,-15.987 0.125,15.803 c 0.069,8.691 0.031,16.05 -0.085,16.353 m -80.339,-3.851 c 13.176,3.913 10.704,33.97 -2.797,34.006 -6.643,0.018 -11.61,-5.812 -12.911,-15.153 -1.886,-13.554 5.143,-21.991 15.708,-18.853"
       stroke="none"
       fill="#000000"
       fill-rule="evenodd"
       style="fill:#ffffff" />
  </g>
</svg>
