<?xml version="1.0" encoding="UTF-8" standalone="no"?>
<svg
   height="221.83545"
   viewBox="0 0 378.97445 58.693581"
   width="1432.3462"
   version="1.1"
   id="svg26"
   sodipodi:docname="logo.svg"
   inkscape:version="1.1 (c68e22c387, 2021-05-23)"
   xmlns:inkscape="http://www.inkscape.org/namespaces/inkscape"
   xmlns:sodipodi="http://sodipodi.sourceforge.net/DTD/sodipodi-0.dtd"
   xmlns="http://www.w3.org/2000/svg"
   xmlns:svg="http://www.w3.org/2000/svg">
  <defs
     id="defs30" />
  <sodipodi:namedview
     id="namedview28"
     pagecolor="#505050"
     bordercolor="#eeeeee"
     borderopacity="1"
     inkscape:pageshadow="0"
     inkscape:pageopacity="0"
     inkscape:pagecheckerboard="0"
     showgrid="false"
     inkscape:zoom="0.26429767"
     inkscape:cx="541.0566"
     inkscape:cy="-141.88547"
     inkscape:window-width="1360"
     inkscape:window-height="745"
     inkscape:window-x="-8"
     inkscape:window-y="-8"
     inkscape:window-maximized="1"
     inkscape:current-layer="g24" />
  <metadata
     id="metadata2" />
  <g
     transform="translate(47.416136,-434.17036)"
     id="g24">
    <g
       transform="matrix(1.32125,0,0,1.32125,480.53,-75.04)"
       id="g20"
       style="fill:#ffffff">
      <path
         d="m -299.036,399.581 c -6.88566,0 -13.966,5.51768 -13.966,15.1756 0,8.82926 6.22524,15.0656 13.966,15.0656 6.38958,0 9.23732,-4.28876 9.23732,-4.28876 v 1.86946 c 0,0.8836 0.83542,1.86946 1.86946,1.86946 h 4.61866 v -29.0316 h -6.48812 v 3.68394 c 0,0 -2.8716,-4.34376 -9.23732,-4.34376 z m 1.15574,5.93636 c 5.66836,0 8.64172,4.9851 8.64172,9.2371 0,4.73604 -3.5303,9.23388 -8.6297,9.2339 -4.26278,0 -8.53284,-3.45238 -8.53284,-9.2964 0,-5.27526 3.67466,-9.1746 8.52082,-9.1746 z"
         id="path4"
         style="fill:#ffffff" />
      <path
         d="m -274.293,429.272 c -0.99682,0 -1.86946,-0.71498 -1.86946,-1.86946 v -27.1621 h 6.48812 v 3.59262 c 1.47022,-2.20986 4.34254,-4.26128 8.75132,-4.26128 7.2059,0 11.043,5.74422 11.043,11.1156 v 18.5846 h -4.5087 c -1.18224,0 -1.97942,-0.9897 -1.97942,-1.97942 v -15.1756 c 0,-2.97738 -1.82422,-6.59332 -6.04314,-6.59332 -4.55234,0 -7.26302,4.30228 -7.26302,8.3528 v 15.3955 z"
         id="path6"
         style="fill:#ffffff" />
      <path
         d="m -230.966,399.581 c -6.88564,0 -13.9659,5.51768 -13.9659,15.1756 0,8.82926 6.22524,15.0656 13.9659,15.0656 6.38958,0 9.23734,-4.28876 9.23734,-4.28876 v 1.86946 c 0,0.8836 0.83542,1.86946 1.86946,1.86946 h 4.61866 v -43.5474 h -6.48812 v 18.1997 c 0,0 -2.87162,-4.34374 -9.23734,-4.34374 z m 1.15576,5.93636 c 5.66836,0 8.64172,4.9851 8.64172,9.2371 0,4.73604 -3.53032,9.23388 -8.6297,9.2339 -4.26278,0 -8.53284,-3.45238 -8.53284,-9.2964 0,-5.27528 3.67464,-9.1746 8.52082,-9.1746 z"
         id="path8"
         style="fill:#ffffff" />
      <path
         d="m -206.223,429.272 c -0.99682,0 -1.86946,-0.71498 -1.86946,-1.86946 v -27.1621 h 6.48812 v 4.8386 c 1.11676,-2.7106 3.52662,-5.1685 7.80774,-5.1685 1.19346,0 2.30934,0.21994 2.30934,0.21994 v 6.70804 c 0,0 -1.39338,-0.54984 -3.07912,-0.54984 -4.55234,0 -7.03796,4.30228 -7.03796,8.35282 v 14.6305 z"
         id="path10"
         style="fill:#ffffff" />
      <path
         d="m -152.119,429.272 c -0.99682,0 -1.86946,-0.71498 -1.86946,-1.86946 v -27.1621 h 6.48812 v 29.0316 z"
         id="path12"
         style="fill:#ffffff" />
      <path
         d="m -128.476,399.581 c -6.88566,0 -13.966,5.51768 -13.966,15.1756 0,8.82926 6.22524,15.0656 13.966,15.0656 6.38956,0 9.23731,-4.28876 9.23731,-4.28876 v 1.86946 c 0,0.8836 0.83542,1.86946 1.86946,1.86946 h 4.61866 v -43.5474 h -6.48812 v 18.1997 c 0,0 -2.87159,-4.34374 -9.23731,-4.34374 z m 1.15574,5.93636 c 5.66836,0 8.64171,4.9851 8.64171,9.2371 0,4.73604 -3.53029,9.23388 -8.62969,9.2339 -4.26278,0 -8.53284,-3.45238 -8.53284,-9.2964 0,-5.27528 3.67466,-9.1746 8.52082,-9.1746 z"
         id="path14"
         style="fill:#ffffff" />
      <circle
         cx="-150.78999"
         cy="389.69"
         r="4.29"
         id="circle16"
         style="fill:#ffffff" />
      <path
         d="m -174.376,399.571 c -7.21114,0 -15.1337,5.38276 -15.1337,15.1337 0,8.88566 6.74818,15.1183 15.118,15.1183 10.315,0 15.3517,-8.29218 15.3517,-15.062 0,-8.30724 -6.48568,-15.19 -15.336,-15.19 z m 0.0236,6.059 c 4.9867,0 8.70638,4.01914 8.70638,9.09298 0,5.16184 -3.94862,9.14498 -8.69156,9.14498 -4.40284,0 -8.68276,-3.583 -8.68276,-9.0582 0,-5.56646 4.07064,-9.17976 8.66794,-9.17976 z"
         id="path18"
         style="fill:#ffffff" />
    </g>
    <path
       d="M 28.606408,452.82793 37.083,438.14405 c 0.47834,-0.82318 0.189114,-1.86886 -0.622954,-2.3472 -0.812061,-0.47833 -1.868858,-0.20023 -2.336072,0.62296 l -8.587857,14.87298 c -6.552142,-2.9924 -13.927436,-4.66104 -21.858982,-4.66104 -7.9315087,0 -15.30684,1.66862 -21.858981,4.66104 l -8.587858,-14.87298 c -0.478341,-0.82319 -1.524011,-1.10129 -2.347197,-0.62296 -0.823192,0.47834 -1.101296,1.52402 -0.622956,2.3472 l 8.476593,14.68388 c -14.617137,7.92042 -24.517659,22.71553 -26.152872,40.03571 H 54.77053 C 53.135278,475.54334 43.234757,460.7482 28.606528,452.82793 Z m -48.390134,25.68567 c -2.369447,0 -4.2828,-1.92449 -4.2828,-4.2828 0,-2.36945 1.924479,-4.28281 4.2828,-4.28281 2.369446,0 4.282798,1.92448 4.282798,4.28281 0.01117,2.35831 -1.913356,4.2828 -4.282798,4.2828 z m 46.910708,0 c -2.369443,0 -4.282799,-1.92449 -4.282799,-4.2828 0,-2.36945 1.924482,-4.28281 4.282799,-4.28281 2.369451,0 4.282799,1.92448 4.282799,4.28281 0.01111,2.35831 -1.913348,4.2828 -4.282799,4.2828 z"
       fill="#32de84"
       stroke-width="0.111305"
       id="path22"
       style="fill:#ffffff" />
  </g>
</svg>
