<?xml version="1.0" encoding="UTF-8" standalone="no"?>
<!-- Generator: Adobe Illustrator 19.0.0, SVG Export Plug-In . SVG Version: 6.00 Build 0)  -->

<svg
   version="1.1"
   id="Layer_1"
   x="0px"
   y="0px"
   viewBox="0 0 369.95599 80.199997"
   xml:space="preserve"
   sodipodi:docname="logo.svg"
   inkscape:version="1.1 (c68e22c387, 2021-05-23)"
   width="369.95599"
   height="80.199997"
   xmlns:inkscape="http://www.inkscape.org/namespaces/inkscape"
   xmlns:sodipodi="http://sodipodi.sourceforge.net/DTD/sodipodi-0.dtd"
   xmlns="http://www.w3.org/2000/svg"
   xmlns:svg="http://www.w3.org/2000/svg"><defs
   id="defs22" /><sodipodi:namedview
   id="namedview20"
   pagecolor="#505050"
   bordercolor="#eeeeee"
   borderopacity="1"
   inkscape:pageshadow="0"
   inkscape:pageopacity="0"
   inkscape:pagecheckerboard="0"
   showgrid="false"
   inkscape:zoom="0.91966853"
   inkscape:cx="148.42304"
   inkscape:cy="75.570706"
   inkscape:window-width="1360"
   inkscape:window-height="745"
   inkscape:window-x="-8"
   inkscape:window-y="-8"
   inkscape:window-maximized="1"
   inkscape:current-layer="Layer_1" />
<style
   type="text/css"
   id="style2">
	.st0{fill:#0078D6;}
</style>
<title
   id="title4">Layer 1</title>
<g
   id="XMLID_1_"
   style="fill:#ffffff"
   transform="translate(-65,-209.9)">
	<path
   id="svg_53"
   class="st0"
   d="m 101.7,216.2 c 14.4,-2.2 28.9,-4.3 43.4,-6.3 0,12.7 0,25.3 0,38 -14.5,0.1 -28.9,0.3 -43.4,0.3 0,-10.7 0,-21.3 0,-32 z"
   style="fill:#ffffff" />
	<path
   id="svg_52"
   class="st0"
   d="m 65,221.3 c 10.9,-1.7 21.8,-3.1 32.7,-4.5 0,10.5 0,21 0,31.5 -10.9,0 -21.8,0.2 -32.7,0.1 z"
   style="fill:#ffffff" />
	<path
   id="svg_51"
   class="st0"
   d="m 237.7,223.1 c 2.9,-1.8 6.5,2 4.8,4.8 -0.8,2.1 -3.8,2.9 -5.4,1.4 -2.1,-1.5 -1.8,-5.2 0.6,-6.2 z"
   style="fill:#ffffff" />
	<path
   id="svg_50"
   class="st0"
   d="m 312.6,222.7 c 1.8,0 3.7,0 5.5,0 0,17.1 0,34.2 0,51.3 -1.8,0 -3.7,0 -5.5,0 0,-1.9 0,-3.7 -0.2,-5.6 -4,7.1 -14.6,8.7 -20.7,3.4 -4.3,-3.7 -5.7,-9.8 -5.4,-15.3 0,-5.6 1.9,-11.5 6.3,-15.1 5.8,-4.7 16,-4.5 19.9,2.5 0.1,-7.1 0.1,-14.1 0.1,-21.2 M 300.8,243 c -4.4,0.7 -7.4,4.7 -8.2,8.9 -1.1,5 -0.9,10.8 2.3,15.1 3.4,4.5 10.9,4.6 14.6,0.3 2.5,-2.6 3.2,-6.3 3.2,-9.8 0,-3.7 0.3,-7.8 -2.1,-10.8 -2.2,-3.1 -6.2,-4.5 -9.8,-3.7 z"
   style="fill:#ffffff" />
	<path
   id="svg_47"
   class="st0"
   d="m 169.4,225.4 c 2.1,0 4.1,0 6.2,0 3.2,11.6 6.4,23.3 9.6,34.9 0.7,2.4 1.2,4.9 1.5,7.5 3.4,-14.3 7.9,-28.2 11.8,-42.4 1.8,0 3.6,0 5.4,0 2.8,10.1 5.5,20.2 8.3,30.3 1,4 2.4,8 2.8,12.1 3,-14.3 7.4,-28.2 10.8,-42.4 2,0 4.1,0 6.1,0 -4.4,16.2 -9.1,32.4 -13.5,48.6 -2.2,0 -4.4,0 -6.6,0 -3.3,-11.6 -6.5,-23.3 -9.8,-34.9 -0.5,-1.9 -0.8,-3.8 -1,-5.8 -0.3,1.7 -0.5,3.4 -0.9,5 -3.3,11.8 -6.7,23.7 -9.9,35.5 -2.2,0.1 -4.4,0.1 -6.6,0.1 -4.8,-16.1 -9.5,-32.3 -14.2,-48.5 v 0 z"
   style="fill:#ffffff" />
	<path
   id="svg_46"
   class="st0"
   d="m 256.6,244.8 c 3.1,-5.6 10.5,-8.2 16.4,-5.6 4.7,1.8 6.5,7.3 6.6,11.9 0.3,7.6 0,15.3 0.1,22.9 -1.8,0 -3.7,0 -5.5,0 -0.1,-7.3 0.2,-14.7 -0.1,-22 -0.1,-3.6 -1.7,-8 -5.6,-8.9 -5.8,-1.7 -11.5,3.5 -11.7,9.2 -0.2,7.3 0,14.5 -0.1,21.8 -1.8,0 -3.7,0 -5.5,0 0,-11.6 0,-23.2 0,-34.8 1.8,0 3.7,0 5.5,0 0,1.7 0,3.6 -0.1,5.5 z"
   style="fill:#ffffff" />
	<path
   id="svg_45"
   class="st0"
   d="m 339.5,238.3 c 4.9,-0.4 10.3,0.3 14,3.9 4.2,3.8 5.4,9.8 5.2,15.3 -0.1,4.9 -1.9,9.9 -5.5,13.3 -7.5,6.8 -21.4,5.3 -26.2,-4.1 -3.7,-7.9 -3,-18.7 3.8,-24.7 2.5,-2.1 5.6,-3 8.7,-3.7 m -1,5 c -8.1,2.5 -9.4,13 -6.9,20 2,6.2 9.8,8.9 15.5,6 3.8,-1.8 5.5,-6 5.9,-10 0.4,-4.6 0,-9.8 -3.2,-13.4 -2.8,-3.1 -7.5,-3.7 -11.3,-2.6 z"
   style="fill:#ffffff" />
	<path
   id="svg_44"
   class="st0"
   d="m 422.9,238.3 c 3.4,-0.2 6.9,0.1 10.2,1.4 0.9,1.7 0.2,3.9 0.4,5.9 -3.9,-2.4 -9.2,-4 -13.4,-1.5 -2.9,1.6 -3,6.2 -0.2,7.9 4,2.6 9.1,3.3 12.6,6.6 3.9,3.8 3,11 -1.6,13.9 -5.6,3.6 -12.9,3.2 -18.8,0.5 0,-2.1 0,-4.1 0,-6.2 4.2,3.2 10,4.9 15,2.7 2.9,-1.5 3.1,-5.9 0.5,-7.8 -4,-3 -9.5,-3.4 -13.1,-7.1 -3.5,-3.5 -2.9,-10 1,-13 2.1,-2 4.8,-2.6 7.4,-3.3 z"
   style="fill:#ffffff" />
	<path
   id="svg_43"
   class="st0"
   d="m 236.5,239.2 c 1.8,0 3.7,0 5.5,0 0,11.6 0,23.2 0,34.8 -1.8,0 -3.7,0 -5.5,0 0,-11.6 0,-23.2 0,-34.8 z"
   style="fill:#ffffff" />
	<path
   id="svg_42"
   class="st0"
   d="m 361,239.2 c 1.9,0 3.8,0 5.7,0 2.3,8.3 4.5,16.6 6.8,24.9 0.5,1.6 0.6,3.2 0.8,4.8 2.6,-10 5.9,-19.8 8.8,-29.7 1.7,0 3.3,0 5,0 2.5,9.9 5.7,19.7 7.7,29.7 2.2,-9.9 5.2,-19.7 7.6,-29.6 1.8,-0.1 3.7,-0.1 5.5,-0.1 -3.5,11.6 -6.8,23.3 -10.3,34.9 -1.9,0 -3.8,0 -5.7,0 -2.5,-9.4 -5.7,-18.7 -7.7,-28.2 -2.4,9.5 -5.7,18.8 -8.4,28.2 -1.8,0 -3.7,0 -5.5,0 -3.4,-11.7 -6.9,-23.3 -10.3,-34.9 z"
   style="fill:#ffffff" />
	<path
   id="svg_41"
   class="st0"
   d="m 65,251.8 c 10.9,0 21.8,0.1 32.7,0.1 0,10.5 0,21.1 0,31.6 -10.9,-1.6 -21.8,-3 -32.7,-4.5 z"
   style="fill:#ffffff" />
	<path
   id="svg_40"
   class="st0"
   d="m 101.6,252.2 c 14.5,0 29,0 43.4,0 0,12.6 0,25.3 0,37.9 -14.4,-2.2 -28.9,-4.2 -43.4,-6.1 0,-10.6 0,-21.2 0,-31.8 z"
   style="fill:#ffffff" />
</g>
</svg>
